<svg width="340" height="292" viewBox="0 0 340 292" fill="none" xmlns="http://www.w3.org/2000/svg">
<path fill-rule="evenodd" clip-rule="evenodd" d="M15 0C6.71573 0 0 6.71572 0 15V203.001C0.0634049 203 0.126897 203 0.190475 203C9.13223 203 16.381 210.557 16.381 219.88C16.381 229.203 9.13223 236.76 0.190475 236.76C0.126897 236.76 0.0634049 236.76 0 236.759V277C0 285.284 6.71572 292 15 292H325C333.284 292 340 285.284 340 277V236.759C331.146 236.652 324 229.136 324 219.88C324 210.624 331.146 203.108 340 203.001V15C340 6.71573 333.284 0 325 0H15ZM67.56 63.24V66.92H81.56V74.04H58.28V46.04H81.04V53.16H67.56V56.44H79.4V63.24H67.56ZM98.1541 71.186V74.04H106.554V62.28C106.554 58.6267 105.514 55.96 103.434 54.28C101.381 52.6 98.4741 51.76 94.7141 51.76C93.0074 51.76 91.2607 51.9733 89.4741 52.4C87.6874 52.8267 86.1541 53.44 84.8741 54.24L87.7541 60.2C88.4741 59.6667 89.3407 59.2533 90.3541 58.96C91.3674 58.64 92.3674 58.48 93.3541 58.48C94.8207 58.48 95.8741 58.76 96.5141 59.32C97.0217 59.7464 97.3361 60.3198 97.4572 61.04H93.8341C91.5674 61.04 89.6874 61.2933 88.1941 61.8C86.7274 62.3067 85.6341 63.0533 84.9141 64.04C84.1941 65.0267 83.8341 66.2267 83.8341 67.64C83.8341 68.8933 84.1407 70.04 84.7541 71.08C85.3674 72.0933 86.2741 72.9067 87.4741 73.52C88.6741 74.1333 90.1674 74.44 91.9541 74.44C93.8474 74.44 95.3541 74.04 96.4741 73.24C97.1937 72.726 97.7537 72.0413 98.1541 71.186ZM97.5141 66.92V65.4H95.2741C94.3141 65.4 93.6074 65.56 93.1541 65.88C92.7274 66.1733 92.5141 66.6267 92.5141 67.24C92.5141 67.7467 92.7007 68.1733 93.0741 68.52C93.4741 68.84 94.0074 69 94.6741 69C95.2874 69 95.8474 68.84 96.3541 68.52C96.8874 68.1733 97.2741 67.64 97.5141 66.92ZM110.461 52.16V74.04H119.501V64.32C119.501 62.5867 119.928 61.3733 120.781 60.68C121.661 59.96 122.781 59.6 124.141 59.6C124.461 59.6 124.768 59.6133 125.061 59.64C125.381 59.6667 125.741 59.7067 126.141 59.76V51.76C124.088 51.76 122.328 52.1867 120.861 53.04C120.173 53.4403 119.573 53.9345 119.061 54.5226V52.16H110.461ZM128.703 44.36V74.04H137.743V44.36H128.703ZM142.87 81.64C144.123 82.0133 145.35 82.2 146.55 82.2C148.097 82.2 149.51 81.9733 150.79 81.52C152.097 81.0667 153.27 80.28 154.31 79.16C155.377 78.04 156.31 76.48 157.11 74.48L166.11 52.16H157.55L152.947 63.8921L148.43 52.16H139.15L148.359 74.292C148.232 74.4415 148.096 74.5708 147.95 74.68C147.523 75.0267 146.91 75.2 146.11 75.2C145.577 75.2 145.017 75.0933 144.43 74.88C143.87 74.6667 143.363 74.3867 142.91 74.04L139.91 80.24C140.657 80.8267 141.643 81.2933 142.87 81.64ZM179.764 46.04V74.04H195.524C199.391 74.04 202.324 73.36 204.324 72C206.351 70.64 207.364 68.7467 207.364 66.32C207.364 64.6933 206.924 63.3067 206.044 62.16C205.191 60.9867 203.964 60.0933 202.364 59.48C202.304 59.4564 202.243 59.4332 202.181 59.4105C203.316 58.8159 204.204 58.0657 204.844 57.16C205.644 56.04 206.044 54.7733 206.044 53.36C206.044 51.2267 205.124 49.48 203.284 48.12C201.444 46.7333 198.591 46.04 194.724 46.04H179.764ZM194.724 67.44H189.044V63.04H194.724C195.764 63.04 196.538 63.2267 197.044 63.6C197.578 63.9733 197.844 64.52 197.844 65.24C197.844 65.96 197.578 66.5067 197.044 66.88C196.538 67.2533 195.764 67.44 194.724 67.44ZM189.044 56.8V52.64H193.444C194.511 52.64 195.284 52.8133 195.764 53.16C196.271 53.5067 196.524 54.0267 196.524 54.72C196.524 55.3867 196.271 55.9067 195.764 56.28C195.284 56.6267 194.511 56.8 193.444 56.8H189.044ZM210.422 52.16V74.04H219.462V52.16H210.422ZM210.982 49.08C211.969 49.96 213.289 50.4 214.942 50.4C216.595 50.4 217.915 49.96 218.902 49.08C219.889 48.1733 220.382 47.0267 220.382 45.64C220.382 44.3333 219.889 43.2667 218.902 42.44C217.915 41.6133 216.595 41.2 214.942 41.2C213.289 41.2 211.969 41.64 210.982 42.52C209.995 43.4 209.502 44.4933 209.502 45.8C209.502 47.1067 209.995 48.2 210.982 49.08ZM223.469 52.16V74.04H232.509V64.32C232.509 62.5867 232.935 61.3733 233.789 60.68C234.669 59.96 235.789 59.6 237.149 59.6C237.469 59.6 237.775 59.6133 238.069 59.64C238.389 59.6667 238.749 59.7067 239.149 59.76V51.76C237.095 51.76 235.335 52.1867 233.869 53.04C233.181 53.4403 232.581 53.9345 232.069 54.5226V52.16H223.469ZM245.836 73.08C247.462 73.9867 249.222 74.44 251.116 74.44C253.142 74.44 254.756 74.04 255.956 73.24C256.385 72.9602 256.771 72.6265 257.116 72.239V74.04H265.716V44.36H256.676V53.6635C256.415 53.4162 256.135 53.195 255.836 53C254.609 52.1733 253.036 51.76 251.116 51.76C249.222 51.76 247.462 52.2133 245.836 53.12C244.236 54.0267 242.956 55.3333 241.996 57.04C241.036 58.72 240.556 60.7333 240.556 63.08C240.556 65.4267 241.036 67.4533 241.996 69.16C242.956 70.84 244.236 72.1467 245.836 73.08ZM255.076 66.92C254.542 67.24 253.942 67.4 253.276 67.4C252.609 67.4 252.009 67.24 251.476 66.92C250.942 66.6 250.516 66.12 250.196 65.48C249.876 64.8133 249.716 64.0133 249.716 63.08C249.716 62.12 249.876 61.3333 250.196 60.72C250.516 60.08 250.942 59.6 251.476 59.28C252.009 58.96 252.609 58.8 253.276 58.8C253.942 58.8 254.542 58.96 255.076 59.28C255.609 59.6 256.036 60.08 256.356 60.72C256.676 61.3333 256.836 62.12 256.836 63.08C256.836 64.0133 256.676 64.8133 256.356 65.48C256.036 66.12 255.609 66.6 255.076 66.92ZM64.36 102.36V123.04H73.8V102.36H82V95.04H56.16V102.36H64.36ZM84.1719 101.16V123.04H93.2119V101.16H84.1719ZM84.7319 98.08C85.7185 98.96 87.0385 99.4 88.6919 99.4C90.3452 99.4 91.6652 98.96 92.6519 98.08C93.6385 97.1733 94.1319 96.0267 94.1319 94.64C94.1319 93.3333 93.6385 92.2667 92.6519 91.44C91.6652 90.6133 90.3452 90.2 88.6919 90.2C87.0385 90.2 85.7185 90.64 84.7319 91.52C83.7452 92.4 83.2519 93.4933 83.2519 94.8C83.2519 96.1067 83.7452 97.2 84.7319 98.08ZM102.299 122C104.245 122.96 106.472 123.44 108.979 123.44C111.645 123.44 113.925 122.867 115.819 121.72C117.712 120.573 119.019 118.987 119.739 116.96L112.739 113.52C112.285 114.533 111.725 115.267 111.059 115.72C110.419 116.173 109.712 116.4 108.939 116.4C108.272 116.4 107.645 116.24 107.059 115.92C106.499 115.6 106.045 115.12 105.699 114.48C105.379 113.84 105.219 113.04 105.219 112.08C105.219 111.12 105.379 110.333 105.699 109.72C106.045 109.08 106.499 108.6 107.059 108.28C107.645 107.96 108.272 107.8 108.939 107.8C109.712 107.8 110.419 108.027 111.059 108.48C111.725 108.933 112.285 109.667 112.739 110.68L119.739 107.24C119.019 105.213 117.712 103.627 115.819 102.48C113.925 101.333 111.645 100.76 108.979 100.76C106.472 100.76 104.245 101.24 102.299 102.2C100.352 103.16 98.8187 104.493 97.6988 106.2C96.6054 107.907 96.0587 109.867 96.0587 112.08C96.0587 114.293 96.6054 116.267 97.6988 118C98.8187 119.707 100.352 121.04 102.299 122ZM130.868 117.869V123.04H121.828V93.36H130.868V107.506L137.148 101.16H147.828L138.788 110.634L148.548 123.04H137.628L132.325 116.323L130.868 117.869ZM154.447 121.96C156.447 122.947 158.781 123.44 161.447 123.44C163.634 123.44 165.501 123.147 167.047 122.56C168.621 121.947 169.941 121.067 171.007 119.92L166.287 115.16C165.567 115.693 164.874 116.093 164.207 116.36C163.567 116.627 162.741 116.76 161.727 116.76C160.741 116.76 159.901 116.6 159.207 116.28C158.514 115.933 157.981 115.427 157.607 114.76C157.508 114.583 157.422 114.396 157.349 114.2H172.527C172.554 113.88 172.581 113.533 172.607 113.16C172.634 112.76 172.647 112.4 172.647 112.08C172.647 109.6 172.087 107.52 170.967 105.84C169.874 104.16 168.407 102.893 166.567 102.04C164.754 101.187 162.767 100.76 160.607 100.76C158.261 100.76 156.141 101.24 154.247 102.2C152.381 103.16 150.901 104.493 149.807 106.2C148.741 107.907 148.207 109.867 148.207 112.08C148.207 114.24 148.754 116.187 149.847 117.92C150.941 119.627 152.474 120.973 154.447 121.96ZM157.153 109.84C157.226 109.472 157.338 109.139 157.487 108.84C157.781 108.227 158.194 107.76 158.727 107.44C159.287 107.093 159.941 106.92 160.687 106.92C161.434 106.92 162.074 107.093 162.607 107.44C163.141 107.76 163.554 108.227 163.847 108.84C164.01 109.139 164.132 109.472 164.212 109.84H157.153ZM179.02 121.28C180.7 122.72 183.047 123.44 186.06 123.44C187.127 123.44 188.14 123.347 189.1 123.16C190.087 122.973 190.927 122.68 191.62 122.28L189.46 116C188.873 116.4 188.193 116.6 187.42 116.6C186.887 116.6 186.433 116.413 186.06 116.04C185.713 115.667 185.54 115.147 185.54 114.48V108.96H190.02V102.36H185.54V96.24H176.5V102.36H173.5V108.96H176.5V114.56C176.5 117.573 177.34 119.813 179.02 121.28ZM196.938 122.84C198.752 123.24 200.592 123.44 202.458 123.44C204.992 123.44 207.098 123.107 208.778 122.44C210.458 121.747 211.712 120.84 212.538 119.72C213.365 118.573 213.778 117.347 213.778 116.04C213.778 114.787 213.552 113.76 213.098 112.96C212.645 112.133 212.045 111.48 211.298 111C210.552 110.52 209.725 110.16 208.818 109.92C207.938 109.653 207.045 109.467 206.138 109.36C205.258 109.227 204.445 109.12 203.698 109.04C202.952 108.96 202.352 108.84 201.898 108.68C201.445 108.52 201.218 108.28 201.218 107.96C201.218 107.693 201.418 107.453 201.818 107.24C202.245 107.027 203.032 106.92 204.178 106.92C205.112 106.92 206.112 107.04 207.178 107.28C208.272 107.493 209.378 107.907 210.498 108.52L212.978 102.56C211.832 101.947 210.458 101.493 208.858 101.2C207.258 100.907 205.658 100.76 204.058 100.76C201.605 100.76 199.538 101.107 197.858 101.8C196.205 102.467 194.952 103.36 194.098 104.48C193.272 105.6 192.858 106.853 192.858 108.24C192.858 109.493 193.085 110.533 193.538 111.36C193.992 112.16 194.592 112.8 195.338 113.28C196.085 113.76 196.912 114.12 197.818 114.36C198.725 114.6 199.618 114.787 200.498 114.92C201.405 115.027 202.232 115.12 202.978 115.2C203.725 115.28 204.325 115.4 204.778 115.56C205.232 115.693 205.458 115.92 205.458 116.24C205.458 116.56 205.258 116.813 204.858 117C204.485 117.187 203.752 117.28 202.658 117.28C201.352 117.28 200.005 117.107 198.618 116.76C197.258 116.413 196.058 115.933 195.018 115.32L192.538 121.28C193.658 121.92 195.125 122.44 196.938 122.84ZM56.84 162.64C56.84 160.992 57.208 159.52 57.944 158.224C58.696 156.912 59.712 155.896 60.992 155.176C62.288 154.44 63.736 154.072 65.336 154.072C67.208 154.072 68.848 154.552 70.256 155.512C71.664 156.472 72.648 157.8 73.208 159.496H69.344C68.96 158.696 68.416 158.096 67.712 157.696C67.024 157.296 66.224 157.096 65.312 157.096C64.336 157.096 63.464 157.328 62.696 157.792C61.944 158.24 61.352 158.88 60.92 159.712C60.504 160.544 60.296 161.52 60.296 162.64C60.296 163.744 60.504 164.72 60.92 165.568C61.352 166.4 61.944 167.048 62.696 167.512C63.464 167.96 64.336 168.184 65.312 168.184C66.224 168.184 67.024 167.984 67.712 167.584C68.416 167.168 68.96 166.56 69.344 165.76H73.208C72.648 167.472 71.664 168.808 70.256 169.768C68.864 170.712 67.224 171.184 65.336 171.184C63.736 171.184 62.288 170.824 60.992 170.104C59.712 169.368 58.696 168.352 57.944 167.056C57.208 165.76 56.84 164.288 56.84 162.64ZM81.9819 171.256C80.7019 171.256 79.5499 170.976 78.5259 170.416C77.5019 169.84 76.6939 169.032 76.1019 167.992C75.5259 166.952 75.2379 165.752 75.2379 164.392C75.2379 163.032 75.5339 161.832 76.1259 160.792C76.7339 159.752 77.5579 158.952 78.5979 158.392C79.6379 157.816 80.7979 157.528 82.0779 157.528C83.3579 157.528 84.5179 157.816 85.5579 158.392C86.5979 158.952 87.4139 159.752 88.0059 160.792C88.6139 161.832 88.9179 163.032 88.9179 164.392C88.9179 165.752 88.6059 166.952 87.9819 167.992C87.3739 169.032 86.5419 169.84 85.4859 170.416C84.4459 170.976 83.2779 171.256 81.9819 171.256ZM81.9819 168.328C82.5899 168.328 83.1579 168.184 83.6859 167.896C84.2299 167.592 84.6619 167.144 84.9819 166.552C85.3019 165.96 85.4619 165.24 85.4619 164.392C85.4619 163.128 85.1259 162.16 84.4539 161.488C83.7979 160.8 82.9899 160.456 82.0299 160.456C81.0699 160.456 80.2619 160.8 79.6059 161.488C78.9659 162.16 78.6459 163.128 78.6459 164.392C78.6459 165.656 78.9579 166.632 79.5819 167.32C80.2219 167.992 81.0219 168.328 81.9819 168.328ZM107.895 157.552C109.527 157.552 110.839 158.056 111.831 159.064C112.839 160.056 113.343 161.448 113.343 163.24V171.04H109.983V163.696C109.983 162.656 109.719 161.864 109.191 161.32C108.663 160.76 107.943 160.48 107.031 160.48C106.119 160.48 105.391 160.76 104.847 161.32C104.319 161.864 104.055 162.656 104.055 163.696V171.04H100.695V163.696C100.695 162.656 100.431 161.864 99.9026 161.32C99.3746 160.76 98.6546 160.48 97.7426 160.48C96.8146 160.48 96.0786 160.76 95.5346 161.32C95.0066 161.864 94.7426 162.656 94.7426 163.696V171.04H91.3826V157.744H94.7426V159.352C95.1746 158.792 95.7266 158.352 96.3986 158.032C97.0866 157.712 97.8386 157.552 98.6546 157.552C99.6946 157.552 100.623 157.776 101.439 158.224C102.255 158.656 102.887 159.28 103.335 160.096C103.767 159.328 104.391 158.712 105.207 158.248C106.039 157.784 106.935 157.552 107.895 157.552ZM118.235 156.16C117.643 156.16 117.147 155.976 116.747 155.608C116.363 155.224 116.171 154.752 116.171 154.192C116.171 153.632 116.363 153.168 116.747 152.8C117.147 152.416 117.643 152.224 118.235 152.224C118.827 152.224 119.315 152.416 119.699 152.8C120.099 153.168 120.299 153.632 120.299 154.192C120.299 154.752 120.099 155.224 119.699 155.608C119.315 155.976 118.827 156.16 118.235 156.16ZM119.891 171.04H116.531V157.744H119.891V171.04ZM130.579 157.552C132.163 157.552 133.443 158.056 134.419 159.064C135.395 160.056 135.883 161.448 135.883 163.24V171.04H132.523V163.696C132.523 162.64 132.259 161.832 131.731 161.272C131.203 160.696 130.483 160.408 129.571 160.408C128.643 160.408 127.907 160.696 127.363 161.272C126.835 161.832 126.571 162.64 126.571 163.696V171.04H123.211V157.744H126.571V159.4C127.019 158.824 127.587 158.376 128.275 158.056C128.979 157.72 129.747 157.552 130.579 157.552ZM144.286 157.528C145.278 157.528 146.15 157.728 146.902 158.128C147.654 158.512 148.246 159.016 148.678 159.64V157.744H152.062V171.136C152.062 172.368 151.814 173.464 151.318 174.424C150.822 175.4 150.078 176.168 149.086 176.728C148.094 177.304 146.894 177.592 145.486 177.592C143.598 177.592 142.046 177.152 140.83 176.272C139.63 175.392 138.95 174.192 138.79 172.672H142.126C142.302 173.28 142.678 173.76 143.254 174.112C143.846 174.48 144.558 174.664 145.39 174.664C146.366 174.664 147.158 174.368 147.766 173.776C148.374 173.2 148.678 172.32 148.678 171.136V169.072C148.246 169.696 147.646 170.216 146.878 170.632C146.126 171.048 145.262 171.256 144.286 171.256C143.166 171.256 142.142 170.968 141.214 170.392C140.286 169.816 139.55 169.008 139.006 167.968C138.478 166.912 138.214 165.704 138.214 164.344C138.214 163 138.478 161.808 139.006 160.768C139.55 159.728 140.278 158.928 141.19 158.368C142.118 157.808 143.15 157.528 144.286 157.528ZM148.678 164.392C148.678 163.576 148.518 162.88 148.198 162.304C147.878 161.712 147.446 161.264 146.902 160.96C146.358 160.64 145.774 160.48 145.15 160.48C144.526 160.48 143.95 160.632 143.422 160.936C142.894 161.24 142.462 161.688 142.126 162.28C141.806 162.856 141.646 163.544 141.646 164.344C141.646 165.144 141.806 165.848 142.126 166.456C142.462 167.048 142.894 167.504 143.422 167.824C143.966 168.144 144.542 168.304 145.15 168.304C145.774 168.304 146.358 168.152 146.902 167.848C147.446 167.528 147.878 167.08 148.198 166.504C148.518 165.912 148.678 165.208 148.678 164.392ZM166.846 171.208C165.678 171.208 164.622 171.008 163.678 170.608C162.75 170.208 162.014 169.632 161.47 168.88C160.926 168.128 160.646 167.24 160.63 166.216H164.23C164.278 166.904 164.518 167.448 164.95 167.848C165.398 168.248 166.006 168.448 166.774 168.448C167.558 168.448 168.174 168.264 168.622 167.896C169.07 167.512 169.294 167.016 169.294 166.408C169.294 165.912 169.142 165.504 168.838 165.184C168.534 164.864 168.15 164.616 167.686 164.44C167.238 164.248 166.614 164.04 165.814 163.816C164.726 163.496 163.838 163.184 163.15 162.88C162.478 162.56 161.894 162.088 161.398 161.464C160.918 160.824 160.678 159.976 160.678 158.92C160.678 157.928 160.926 157.064 161.422 156.328C161.918 155.592 162.614 155.032 163.51 154.648C164.406 154.248 165.43 154.048 166.582 154.048C168.31 154.048 169.71 154.472 170.782 155.32C171.87 156.152 172.47 157.32 172.582 158.824H168.886C168.854 158.248 168.606 157.776 168.142 157.408C167.694 157.024 167.094 156.832 166.342 156.832C165.686 156.832 165.158 157 164.758 157.336C164.374 157.672 164.182 158.16 164.182 158.8C164.182 159.248 164.326 159.624 164.614 159.928C164.918 160.216 165.286 160.456 165.718 160.648C166.166 160.824 166.79 161.032 167.59 161.272C168.678 161.592 169.566 161.912 170.254 162.232C170.942 162.552 171.534 163.032 172.03 163.672C172.526 164.312 172.774 165.152 172.774 166.192C172.774 167.088 172.542 167.92 172.078 168.688C171.614 169.456 170.934 170.072 170.038 170.536C169.142 170.984 168.078 171.208 166.846 171.208ZM181.591 171.256C180.311 171.256 179.159 170.976 178.135 170.416C177.111 169.84 176.303 169.032 175.711 167.992C175.135 166.952 174.847 165.752 174.847 164.392C174.847 163.032 175.143 161.832 175.735 160.792C176.343 159.752 177.167 158.952 178.207 158.392C179.247 157.816 180.407 157.528 181.687 157.528C182.967 157.528 184.127 157.816 185.167 158.392C186.207 158.952 187.023 159.752 187.615 160.792C188.223 161.832 188.527 163.032 188.527 164.392C188.527 165.752 188.215 166.952 187.591 167.992C186.983 169.032 186.151 169.84 185.095 170.416C184.055 170.976 182.887 171.256 181.591 171.256ZM181.591 168.328C182.199 168.328 182.767 168.184 183.295 167.896C183.839 167.592 184.271 167.144 184.591 166.552C184.911 165.96 185.071 165.24 185.071 164.392C185.071 163.128 184.735 162.16 184.063 161.488C183.407 160.8 182.599 160.456 181.639 160.456C180.679 160.456 179.871 160.8 179.215 161.488C178.575 162.16 178.255 163.128 178.255 164.392C178.255 165.656 178.567 166.632 179.191 167.32C179.831 167.992 180.631 168.328 181.591 168.328ZM196.896 171.256C195.616 171.256 194.464 170.976 193.44 170.416C192.416 169.84 191.608 169.032 191.016 167.992C190.44 166.952 190.152 165.752 190.152 164.392C190.152 163.032 190.448 161.832 191.04 160.792C191.648 159.752 192.472 158.952 193.512 158.392C194.552 157.816 195.712 157.528 196.992 157.528C198.272 157.528 199.432 157.816 200.472 158.392C201.512 158.952 202.328 159.752 202.92 160.792C203.528 161.832 203.832 163.032 203.832 164.392C203.832 165.752 203.52 166.952 202.896 167.992C202.288 169.032 201.456 169.84 200.4 170.416C199.36 170.976 198.192 171.256 196.896 171.256ZM196.896 168.328C197.504 168.328 198.072 168.184 198.6 167.896C199.144 167.592 199.576 167.144 199.896 166.552C200.216 165.96 200.376 165.24 200.376 164.392C200.376 163.128 200.04 162.16 199.368 161.488C198.712 160.8 197.904 160.456 196.944 160.456C195.984 160.456 195.176 160.8 194.52 161.488C193.88 162.16 193.56 163.128 193.56 164.392C193.56 165.656 193.872 166.632 194.496 167.32C195.136 167.992 195.936 168.328 196.896 168.328ZM213.665 157.552C215.249 157.552 216.529 158.056 217.505 159.064C218.481 160.056 218.969 161.448 218.969 163.24V171.04H215.609V163.696C215.609 162.64 215.345 161.832 214.817 161.272C214.289 160.696 213.569 160.408 212.657 160.408C211.729 160.408 210.993 160.696 210.449 161.272C209.921 161.832 209.657 162.64 209.657 163.696V171.04H206.297V157.744H209.657V159.4C210.105 158.824 210.673 158.376 211.361 158.056C212.065 157.72 212.833 157.552 213.665 157.552ZM59.84 226.408C61.5253 227.645 63.68 228.264 66.304 228.264C68.032 228.264 69.5253 227.955 70.784 227.336C72.064 226.717 73.0347 225.875 73.696 224.808C74.3787 223.741 74.72 222.536 74.72 221.192C74.72 219.869 74.3787 218.781 73.696 217.928C73.0347 217.053 72.2347 216.381 71.296 215.912C70.3787 215.421 69.2053 214.931 67.776 214.44C66.816 214.099 66.0907 213.821 65.6 213.608C65.1093 213.373 64.6933 213.107 64.352 212.808C64.032 212.488 63.872 212.115 63.872 211.688C63.872 211.176 64.0213 210.781 64.32 210.504C64.6187 210.227 65.0027 210.088 65.472 210.088C66.0907 210.088 66.592 210.259 66.976 210.6C67.3813 210.941 67.5947 211.453 67.616 212.136H74.432C74.3253 209.917 73.4827 208.2 71.904 206.984C70.3467 205.747 68.256 205.128 65.632 205.128C64.0107 205.128 62.56 205.395 61.28 205.928C60 206.461 58.9973 207.251 58.272 208.296C57.5467 209.32 57.184 210.557 57.184 212.008C57.184 213.437 57.5147 214.6 58.176 215.496C58.8587 216.371 59.648 217.043 60.544 217.512C61.4613 217.96 62.656 218.429 64.128 218.92C65.5147 219.368 66.5173 219.773 67.136 220.136C67.7547 220.499 68.064 221.011 68.064 221.672C68.064 222.184 67.872 222.589 67.488 222.888C67.1253 223.165 66.656 223.304 66.08 223.304C65.44 223.304 64.9173 223.123 64.512 222.76C64.1067 222.397 63.872 221.821 63.808 221.032H57.12C57.248 223.357 58.1547 225.149 59.84 226.408ZM88.2278 228.04V222.696H86.4037C85.8704 222.696 85.4864 222.589 85.2517 222.376C85.0384 222.163 84.9317 221.811 84.9317 221.32V215.304H88.1957V210.088H84.9317V205.736H78.6277V210.088H76.4197V215.304H78.6277V221.224C78.6277 225.768 80.9211 228.04 85.5078 228.04H88.2278ZM91.0725 214.184C90.4112 215.571 90.0805 217.192 90.0805 219.048C90.0805 220.904 90.4112 222.536 91.0725 223.944C91.7552 225.331 92.6725 226.397 93.8245 227.144C94.9978 227.891 96.2992 228.264 97.7285 228.264C98.9445 228.264 100.001 228.019 100.896 227.528C101.814 227.037 102.518 226.376 103.008 225.544V228.04H109.281V210.088H103.008V212.584C102.518 211.752 101.825 211.091 100.928 210.6C100.033 210.109 98.9658 209.864 97.7285 209.864C96.2992 209.864 94.9978 210.237 93.8245 210.984C92.6725 211.731 91.7552 212.797 91.0725 214.184ZM102.049 216.328C102.688 216.989 103.008 217.896 103.008 219.048C103.008 220.221 102.688 221.139 102.049 221.8C101.43 222.461 100.662 222.792 99.7445 222.792C98.8058 222.792 98.0272 222.461 97.4085 221.8C96.7898 221.117 96.4805 220.2 96.4805 219.048C96.4805 217.875 96.7898 216.968 97.4085 216.328C98.0272 215.667 98.8058 215.336 99.7445 215.336C100.662 215.336 101.43 215.667 102.049 216.328ZM120.79 236.584L132.182 210.088H125.302L121.655 220.264L117.879 210.088H110.902L118.262 227.272L113.975 236.584H120.79ZM156.94 210.472V205.48H138.7V210.472H144.652V228.04H150.924V210.472H156.94ZM177.629 228.04V210.088H171.325V219.72C171.325 220.744 171.058 221.555 170.525 222.152C169.991 222.728 169.266 223.016 168.349 223.016C167.453 223.016 166.727 222.728 166.173 222.152C165.639 221.555 165.373 220.744 165.373 219.72V210.088H159.133V220.52C159.133 222.888 159.73 224.765 160.925 226.152C162.141 227.517 163.794 228.2 165.885 228.2C167.101 228.2 168.178 227.955 169.117 227.464C170.055 226.952 170.791 226.291 171.325 225.48V228.04H177.629ZM197.87 212.008C196.654 210.621 195.012 209.928 192.942 209.928C191.726 209.928 190.649 210.184 189.71 210.696C188.772 211.187 188.025 211.837 187.47 212.648V210.088H181.198V228.04H187.47V218.408C187.47 217.384 187.737 216.584 188.27 216.008C188.804 215.411 189.54 215.112 190.478 215.112C191.374 215.112 192.089 215.411 192.622 216.008C193.156 216.584 193.422 217.384 193.422 218.408V228.04H199.694V217.576C199.694 215.229 199.086 213.373 197.87 212.008ZM220.192 220.328C220.256 219.837 220.288 219.347 220.288 218.856C220.288 217.021 219.904 215.432 219.136 214.088C218.368 212.723 217.301 211.677 215.936 210.952C214.57 210.227 213.002 209.864 211.232 209.864C209.44 209.864 207.85 210.237 206.464 210.984C205.098 211.731 204.032 212.797 203.264 214.184C202.496 215.549 202.112 217.171 202.112 219.048C202.112 220.925 202.496 222.557 203.264 223.944C204.053 225.331 205.13 226.397 206.496 227.144C207.882 227.891 209.461 228.264 211.232 228.264C212.704 228.264 214.048 227.987 215.264 227.432C216.48 226.877 217.482 226.12 218.272 225.16C219.082 224.179 219.626 223.069 219.904 221.832H213.216C212.768 222.771 212.021 223.24 210.976 223.24C210.229 223.24 209.61 223.005 209.12 222.536C208.65 222.045 208.384 221.309 208.32 220.328H220.192ZM213.12 215.496C213.632 215.923 213.888 216.52 213.888 217.288H208.352C208.501 216.477 208.821 215.869 209.312 215.464C209.802 215.037 210.432 214.824 211.2 214.824C211.968 214.824 212.608 215.048 213.12 215.496ZM222.822 214.184C222.161 215.571 221.831 217.192 221.831 219.048C221.831 220.904 222.161 222.536 222.822 223.944C223.505 225.331 224.423 226.397 225.574 227.144C226.748 227.891 228.049 228.264 229.479 228.264C230.695 228.264 231.751 228.019 232.646 227.528C233.542 227.037 234.236 226.376 234.727 225.544V228.04H241.031V204.36H234.727V212.552C234.215 211.72 233.5 211.069 232.583 210.6C231.686 210.109 230.663 209.864 229.51 209.864C228.081 209.864 226.78 210.237 225.607 210.984C224.433 211.731 223.505 212.797 222.822 214.184ZM233.799 216.328C234.439 216.989 234.758 217.896 234.758 219.048C234.758 220.221 234.439 221.139 233.799 221.8C233.18 222.461 232.412 222.792 231.495 222.792C230.556 222.792 229.777 222.461 229.159 221.8C228.54 221.117 228.23 220.2 228.23 219.048C228.23 217.875 228.54 216.968 229.159 216.328C229.777 215.667 230.556 215.336 231.495 215.336C232.412 215.336 233.18 215.667 233.799 216.328Z" fill="#01D0A0"/>
</svg>
