<svg width="420" height="250" viewBox="0 0 420 250" fill="none" xmlns="http://www.w3.org/2000/svg">
<path fill-rule="evenodd" clip-rule="evenodd" d="M15 0C6.71573 0 0 6.71573 0 15V105C11.0457 105 20 113.954 20 125C20 136.046 11.0457 145 0 145V235C0 243.284 6.71572 250 15 250H405C413.284 250 420 243.284 420 235V145C408.954 145 400 136.046 400 125C400 113.954 408.954 105 420 105V15C420 6.71573 413.284 0 405 0H15ZM107.56 60.2V63.88H121.56V71H98.28V43H121.04V50.12H107.56V53.4H119.4V60.2H107.56ZM138.154 68.146V71H146.554V59.24C146.554 55.5867 145.514 52.92 143.434 51.24C141.381 49.56 138.474 48.72 134.714 48.72C133.007 48.72 131.261 48.9333 129.474 49.36C127.687 49.7867 126.154 50.4 124.874 51.2L127.754 57.16C128.474 56.6267 129.341 56.2133 130.354 55.92C131.367 55.6 132.367 55.44 133.354 55.44C134.821 55.44 135.874 55.72 136.514 56.28C137.022 56.7064 137.336 57.2798 137.457 58H133.834C131.567 58 129.687 58.2533 128.194 58.76C126.727 59.2667 125.634 60.0133 124.914 61C124.194 61.9867 123.834 63.1867 123.834 64.6C123.834 65.8533 124.141 67 124.754 68.04C125.367 69.0533 126.274 69.8667 127.474 70.48C128.674 71.0933 130.167 71.4 131.954 71.4C133.847 71.4 135.354 71 136.474 70.2C137.194 69.686 137.754 69.0013 138.154 68.146ZM137.514 63.88V62.36H135.274C134.314 62.36 133.607 62.52 133.154 62.84C132.727 63.1333 132.514 63.5867 132.514 64.2C132.514 64.7067 132.701 65.1333 133.074 65.48C133.474 65.8 134.007 65.96 134.674 65.96C135.287 65.96 135.847 65.8 136.354 65.48C136.887 65.1333 137.274 64.6 137.514 63.88ZM150.461 49.12V71H159.501V61.28C159.501 59.5467 159.928 58.3333 160.781 57.64C161.661 56.92 162.781 56.56 164.141 56.56C164.461 56.56 164.768 56.5733 165.061 56.6C165.381 56.6267 165.741 56.6667 166.141 56.72V48.72C164.088 48.72 162.328 49.1467 160.861 50C160.173 50.4003 159.573 50.8945 159.061 51.4826V49.12H150.461ZM168.703 41.32V71H177.743V41.32H168.703ZM182.87 78.6C184.123 78.9733 185.35 79.16 186.55 79.16C188.097 79.16 189.51 78.9333 190.79 78.48C192.097 78.0267 193.27 77.24 194.31 76.12C195.377 75 196.31 73.44 197.11 71.44L206.11 49.12H197.55L192.947 60.8521L188.43 49.12H179.15L188.359 71.252C188.232 71.4015 188.096 71.5308 187.95 71.64C187.523 71.9867 186.91 72.16 186.11 72.16C185.577 72.16 185.017 72.0533 184.43 71.84C183.87 71.6267 183.363 71.3467 182.91 71L179.91 77.2C180.657 77.7867 181.643 78.2533 182.87 78.6ZM219.764 43V71H235.524C239.391 71 242.324 70.32 244.324 68.96C246.351 67.6 247.364 65.7067 247.364 63.28C247.364 61.6533 246.924 60.2667 246.044 59.12C245.191 57.9467 243.964 57.0533 242.364 56.44C242.304 56.4164 242.243 56.3932 242.181 56.3705C243.316 55.7759 244.204 55.0257 244.844 54.12C245.644 53 246.044 51.7333 246.044 50.32C246.044 48.1867 245.124 46.44 243.284 45.08C241.444 43.6933 238.591 43 234.724 43H219.764ZM234.724 64.4H229.044V60H234.724C235.764 60 236.538 60.1867 237.044 60.56C237.578 60.9333 237.844 61.48 237.844 62.2C237.844 62.92 237.578 63.4667 237.044 63.84C236.538 64.2133 235.764 64.4 234.724 64.4ZM229.044 53.76V49.6H233.444C234.511 49.6 235.284 49.7733 235.764 50.12C236.271 50.4667 236.524 50.9867 236.524 51.68C236.524 52.3467 236.271 52.8667 235.764 53.24C235.284 53.5867 234.511 53.76 233.444 53.76H229.044ZM250.422 49.12V71H259.462V49.12H250.422ZM250.982 46.04C251.969 46.92 253.289 47.36 254.942 47.36C256.595 47.36 257.915 46.92 258.902 46.04C259.889 45.1333 260.382 43.9867 260.382 42.6C260.382 41.2933 259.889 40.2267 258.902 39.4C257.915 38.5733 256.595 38.16 254.942 38.16C253.289 38.16 251.969 38.6 250.982 39.48C249.995 40.36 249.502 41.4533 249.502 42.76C249.502 44.0667 249.995 45.16 250.982 46.04ZM263.469 49.12V71H272.509V61.28C272.509 59.5467 272.935 58.3333 273.789 57.64C274.669 56.92 275.789 56.56 277.149 56.56C277.469 56.56 277.775 56.5733 278.069 56.6C278.389 56.6267 278.749 56.6667 279.149 56.72V48.72C277.095 48.72 275.335 49.1467 273.869 50C273.181 50.4003 272.581 50.8945 272.069 51.4826V49.12H263.469ZM285.836 70.04C287.462 70.9467 289.222 71.4 291.116 71.4C293.142 71.4 294.756 71 295.956 70.2C296.385 69.9202 296.771 69.5865 297.116 69.199V71H305.716V41.32H296.676V50.6235C296.415 50.3762 296.135 50.155 295.836 49.96C294.609 49.1333 293.036 48.72 291.116 48.72C289.222 48.72 287.462 49.1733 285.836 50.08C284.236 50.9867 282.956 52.2933 281.996 54C281.036 55.68 280.556 57.6933 280.556 60.04C280.556 62.3867 281.036 64.4133 281.996 66.12C282.956 67.8 284.236 69.1067 285.836 70.04ZM295.076 63.88C294.542 64.2 293.942 64.36 293.276 64.36C292.609 64.36 292.009 64.2 291.476 63.88C290.942 63.56 290.516 63.08 290.196 62.44C289.876 61.7733 289.716 60.9733 289.716 60.04C289.716 59.08 289.876 58.2933 290.196 57.68C290.516 57.04 290.942 56.56 291.476 56.24C292.009 55.92 292.609 55.76 293.276 55.76C293.942 55.76 294.542 55.92 295.076 56.24C295.609 56.56 296.036 57.04 296.356 57.68C296.676 58.2933 296.836 59.08 296.836 60.04C296.836 60.9733 296.676 61.7733 296.356 62.44C296.036 63.08 295.609 63.56 295.076 63.88ZM104.36 99.32V120H113.8V99.32H122V92H96.16V99.32H104.36ZM124.172 98.12V120H133.212V98.12H124.172ZM124.732 95.04C125.719 95.92 127.039 96.36 128.692 96.36C130.345 96.36 131.665 95.92 132.652 95.04C133.639 94.1333 134.132 92.9867 134.132 91.6C134.132 90.2933 133.639 89.2267 132.652 88.4C131.665 87.5733 130.345 87.16 128.692 87.16C127.039 87.16 125.719 87.6 124.732 88.48C123.745 89.36 123.252 90.4533 123.252 91.76C123.252 93.0667 123.745 94.16 124.732 95.04ZM142.299 118.96C144.245 119.92 146.472 120.4 148.979 120.4C151.645 120.4 153.925 119.827 155.819 118.68C157.712 117.533 159.019 115.947 159.739 113.92L152.739 110.48C152.285 111.493 151.725 112.227 151.059 112.68C150.419 113.133 149.712 113.36 148.939 113.36C148.272 113.36 147.645 113.2 147.059 112.88C146.499 112.56 146.045 112.08 145.699 111.44C145.379 110.8 145.219 110 145.219 109.04C145.219 108.08 145.379 107.293 145.699 106.68C146.045 106.04 146.499 105.56 147.059 105.24C147.645 104.92 148.272 104.76 148.939 104.76C149.712 104.76 150.419 104.987 151.059 105.44C151.725 105.893 152.285 106.627 152.739 107.64L159.739 104.2C159.019 102.173 157.712 100.587 155.819 99.44C153.925 98.2933 151.645 97.72 148.979 97.72C146.472 97.72 144.245 98.2 142.299 99.16C140.352 100.12 138.819 101.453 137.699 103.16C136.605 104.867 136.059 106.827 136.059 109.04C136.059 111.253 136.605 113.227 137.699 114.96C138.819 116.667 140.352 118 142.299 118.96ZM170.868 114.829V120H161.828V90.32H170.868V104.466L177.148 98.12H187.828L178.788 107.594L188.548 120H177.628L172.325 113.283L170.868 114.829ZM194.447 118.92C196.447 119.907 198.781 120.4 201.447 120.4C203.634 120.4 205.501 120.107 207.047 119.52C208.621 118.907 209.941 118.027 211.007 116.88L206.287 112.12C205.567 112.653 204.874 113.053 204.207 113.32C203.567 113.587 202.741 113.72 201.727 113.72C200.741 113.72 199.901 113.56 199.207 113.24C198.514 112.893 197.981 112.387 197.607 111.72C197.508 111.543 197.422 111.356 197.349 111.16H212.527C212.554 110.84 212.581 110.493 212.607 110.12C212.634 109.72 212.647 109.36 212.647 109.04C212.647 106.56 212.087 104.48 210.967 102.8C209.874 101.12 208.407 99.8533 206.567 99C204.754 98.1467 202.767 97.72 200.607 97.72C198.261 97.72 196.141 98.2 194.247 99.16C192.381 100.12 190.901 101.453 189.807 103.16C188.741 104.867 188.207 106.827 188.207 109.04C188.207 111.2 188.754 113.147 189.847 114.88C190.941 116.587 192.474 117.933 194.447 118.92ZM197.153 106.8C197.226 106.432 197.338 106.099 197.487 105.8C197.781 105.187 198.194 104.72 198.727 104.4C199.287 104.053 199.941 103.88 200.687 103.88C201.434 103.88 202.074 104.053 202.607 104.4C203.141 104.72 203.554 105.187 203.847 105.8C204.01 106.099 204.132 106.432 204.212 106.8H197.153ZM219.02 118.24C220.7 119.68 223.047 120.4 226.06 120.4C227.127 120.4 228.14 120.307 229.1 120.12C230.087 119.933 230.927 119.64 231.62 119.24L229.46 112.96C228.873 113.36 228.193 113.56 227.42 113.56C226.887 113.56 226.433 113.373 226.06 113C225.713 112.627 225.54 112.107 225.54 111.44V105.92H230.02V99.32H225.54V93.2H216.5V99.32H213.5V105.92H216.5V111.52C216.5 114.533 217.34 116.773 219.02 118.24ZM236.938 119.8C238.752 120.2 240.592 120.4 242.458 120.4C244.992 120.4 247.098 120.067 248.778 119.4C250.458 118.707 251.712 117.8 252.538 116.68C253.365 115.533 253.778 114.307 253.778 113C253.778 111.747 253.552 110.72 253.098 109.92C252.645 109.093 252.045 108.44 251.298 107.96C250.552 107.48 249.725 107.12 248.818 106.88C247.938 106.613 247.045 106.427 246.138 106.32C245.258 106.187 244.445 106.08 243.698 106C242.952 105.92 242.352 105.8 241.898 105.64C241.445 105.48 241.218 105.24 241.218 104.92C241.218 104.653 241.418 104.413 241.818 104.2C242.245 103.987 243.032 103.88 244.178 103.88C245.112 103.88 246.112 104 247.178 104.24C248.272 104.453 249.378 104.867 250.498 105.48L252.978 99.52C251.832 98.9067 250.458 98.4533 248.858 98.16C247.258 97.8667 245.658 97.72 244.058 97.72C241.605 97.72 239.538 98.0667 237.858 98.76C236.205 99.4267 234.952 100.32 234.098 101.44C233.272 102.56 232.858 103.813 232.858 105.2C232.858 106.453 233.085 107.493 233.538 108.32C233.992 109.12 234.592 109.76 235.338 110.24C236.085 110.72 236.912 111.08 237.818 111.32C238.725 111.56 239.618 111.747 240.498 111.88C241.405 111.987 242.232 112.08 242.978 112.16C243.725 112.24 244.325 112.36 244.778 112.52C245.232 112.653 245.458 112.88 245.458 113.2C245.458 113.52 245.258 113.773 244.858 113.96C244.485 114.147 243.752 114.24 242.658 114.24C241.352 114.24 240.005 114.067 238.618 113.72C237.258 113.373 236.058 112.893 235.018 112.28L232.538 118.24C233.658 118.88 235.125 119.4 236.938 119.8ZM101.016 160.248V177H97.656V160.248H101.016ZM107.696 162.96V167.16H113.336V169.824H107.696V174.264H114.056V177H104.336V160.224H114.056V162.96H107.696ZM120.469 162.96V167.16H126.109V169.824H120.469V174.264H126.829V177H117.109V160.224H126.829V162.96H120.469ZM133.243 162.96V167.16H138.883V169.824H133.243V174.264H139.603V177H129.883V160.224H139.603V162.96H133.243ZM166.639 160.248V177H163.279V166.104L158.791 177H156.247L151.735 166.104V177H148.375V160.248H152.191L157.519 172.704L162.847 160.248H166.639ZM182.321 170.064C182.321 170.544 182.289 170.976 182.225 171.36H172.505C172.585 172.32 172.921 173.072 173.513 173.616C174.105 174.16 174.833 174.432 175.697 174.432C176.945 174.432 177.833 173.896 178.361 172.824H181.985C181.601 174.104 180.865 175.16 179.777 175.992C178.689 176.808 177.353 177.216 175.769 177.216C174.489 177.216 173.337 176.936 172.313 176.376C171.305 175.8 170.513 174.992 169.937 173.952C169.377 172.912 169.097 171.712 169.097 170.352C169.097 168.976 169.377 167.768 169.937 166.728C170.497 165.688 171.281 164.888 172.289 164.328C173.297 163.768 174.457 163.488 175.769 163.488C177.033 163.488 178.161 163.76 179.153 164.304C180.161 164.848 180.937 165.624 181.481 166.632C182.041 167.624 182.321 168.768 182.321 170.064ZM178.841 169.104C178.825 168.24 178.513 167.552 177.905 167.04C177.297 166.512 176.553 166.248 175.673 166.248C174.841 166.248 174.137 166.504 173.561 167.016C173.001 167.512 172.657 168.208 172.529 169.104H178.841ZM201.285 163.512C202.917 163.512 204.229 164.016 205.221 165.024C206.229 166.016 206.733 167.408 206.733 169.2V177H203.373V169.656C203.373 168.616 203.109 167.824 202.581 167.28C202.053 166.72 201.333 166.44 200.421 166.44C199.509 166.44 198.781 166.72 198.237 167.28C197.709 167.824 197.445 168.616 197.445 169.656V177H194.085V169.656C194.085 168.616 193.821 167.824 193.293 167.28C192.765 166.72 192.045 166.44 191.133 166.44C190.205 166.44 189.469 166.72 188.925 167.28C188.397 167.824 188.133 168.616 188.133 169.656V177H184.773V163.704H188.133V165.312C188.565 164.752 189.117 164.312 189.789 163.992C190.477 163.672 191.229 163.512 192.045 163.512C193.085 163.512 194.013 163.736 194.829 164.184C195.645 164.616 196.277 165.24 196.725 166.056C197.157 165.288 197.781 164.672 198.597 164.208C199.429 163.744 200.325 163.512 201.285 163.512ZM213.282 165.648C213.714 165.008 214.306 164.488 215.058 164.088C215.826 163.688 216.698 163.488 217.674 163.488C218.81 163.488 219.834 163.768 220.746 164.328C221.674 164.888 222.402 165.688 222.93 166.728C223.474 167.752 223.746 168.944 223.746 170.304C223.746 171.664 223.474 172.872 222.93 173.928C222.402 174.968 221.674 175.776 220.746 176.352C219.834 176.928 218.81 177.216 217.674 177.216C216.682 177.216 215.81 177.024 215.058 176.64C214.322 176.24 213.73 175.728 213.282 175.104V177H209.922V159.24H213.282V165.648ZM220.314 170.304C220.314 169.504 220.146 168.816 219.81 168.24C219.49 167.648 219.058 167.2 218.514 166.896C217.986 166.592 217.41 166.44 216.786 166.44C216.178 166.44 215.602 166.6 215.058 166.92C214.53 167.224 214.098 167.672 213.762 168.264C213.442 168.856 213.282 169.552 213.282 170.352C213.282 171.152 213.442 171.848 213.762 172.44C214.098 173.032 214.53 173.488 215.058 173.808C215.602 174.112 216.178 174.264 216.786 174.264C217.41 174.264 217.986 174.104 218.514 173.784C219.058 173.464 219.49 173.008 219.81 172.416C220.146 171.824 220.314 171.12 220.314 170.304ZM238.547 170.064C238.547 170.544 238.515 170.976 238.451 171.36H228.731C228.811 172.32 229.147 173.072 229.739 173.616C230.331 174.16 231.059 174.432 231.923 174.432C233.171 174.432 234.059 173.896 234.587 172.824H238.211C237.827 174.104 237.091 175.16 236.003 175.992C234.915 176.808 233.579 177.216 231.995 177.216C230.715 177.216 229.563 176.936 228.539 176.376C227.531 175.8 226.739 174.992 226.163 173.952C225.603 172.912 225.323 171.712 225.323 170.352C225.323 168.976 225.603 167.768 226.163 166.728C226.723 165.688 227.507 164.888 228.515 164.328C229.523 163.768 230.683 163.488 231.995 163.488C233.259 163.488 234.387 163.76 235.379 164.304C236.387 164.848 237.163 165.624 237.707 166.632C238.267 167.624 238.547 168.768 238.547 170.064ZM235.067 169.104C235.051 168.24 234.739 167.552 234.131 167.04C233.523 166.512 232.779 166.248 231.899 166.248C231.067 166.248 230.363 166.504 229.787 167.016C229.227 167.512 228.883 168.208 228.755 169.104H235.067ZM244.36 165.768C244.792 165.064 245.352 164.512 246.04 164.112C246.744 163.712 247.544 163.512 248.44 163.512V167.04H247.552C246.496 167.04 245.696 167.288 245.152 167.784C244.624 168.28 244.36 169.144 244.36 170.376V177H241V163.704H244.36V165.768ZM255.791 177.216C254.703 177.216 253.727 177.024 252.863 176.64C251.999 176.24 251.311 175.704 250.799 175.032C250.303 174.36 250.031 173.616 249.983 172.8H253.367C253.431 173.312 253.679 173.736 254.111 174.072C254.559 174.408 255.111 174.576 255.767 174.576C256.407 174.576 256.903 174.448 257.255 174.192C257.623 173.936 257.807 173.608 257.807 173.208C257.807 172.776 257.583 172.456 257.135 172.248C256.703 172.024 256.007 171.784 255.047 171.528C254.055 171.288 253.239 171.04 252.599 170.784C251.975 170.528 251.431 170.136 250.967 169.608C250.519 169.08 250.295 168.368 250.295 167.472C250.295 166.736 250.503 166.064 250.919 165.456C251.351 164.848 251.959 164.368 252.743 164.016C253.543 163.664 254.479 163.488 255.551 163.488C257.135 163.488 258.399 163.888 259.343 164.688C260.287 165.472 260.807 166.536 260.903 167.88H257.687C257.639 167.352 257.415 166.936 257.015 166.632C256.631 166.312 256.111 166.152 255.455 166.152C254.847 166.152 254.375 166.264 254.039 166.488C253.719 166.712 253.559 167.024 253.559 167.424C253.559 167.872 253.783 168.216 254.231 168.456C254.679 168.68 255.375 168.912 256.319 169.152C257.279 169.392 258.071 169.64 258.695 169.896C259.319 170.152 259.855 170.552 260.303 171.096C260.767 171.624 261.007 172.328 261.023 173.208C261.023 173.976 260.807 174.664 260.375 175.272C259.959 175.88 259.351 176.36 258.551 176.712C257.767 177.048 256.847 177.216 255.791 177.216ZM106.038 198.975V197.379H108.159V195.321H96.882V197.379H103.266V198.975H96.882V200.907H103.161C103.049 201.467 102.818 201.873 102.468 202.125C102.118 202.377 101.586 202.545 100.872 202.629C100.158 202.699 99.052 202.734 97.554 202.734V205.527C97.554 207.053 97.946 208.215 98.73 209.013C99.514 209.811 100.648 210.21 102.132 210.21C103.56 210.21 104.659 209.839 105.429 209.097C106.199 208.341 106.598 207.256 106.626 205.842H103.896C103.896 206.528 103.756 207.053 103.476 207.417C103.196 207.767 102.741 207.942 102.111 207.942C101.453 207.942 100.984 207.753 100.704 207.375C100.438 206.997 100.305 206.479 100.305 205.821V204.708C102.069 204.708 103.385 204.407 104.253 203.805C105.135 203.203 105.688 202.237 105.912 200.907H108.159V198.975H106.038ZM117.154 197.19C117.504 197.484 117.749 197.925 117.889 198.513H120.619C120.493 197.323 120.024 196.329 119.212 195.531C118.4 194.733 117.259 194.334 115.789 194.334C113.885 194.334 112.492 194.992 111.61 196.308C110.728 197.61 110.287 199.542 110.287 202.104C110.287 203.798 110.448 205.226 110.77 206.388C111.106 207.536 111.687 208.432 112.513 209.076C113.353 209.72 114.501 210.042 115.957 210.042C117.021 210.042 117.938 209.825 118.708 209.391C119.478 208.957 120.059 208.355 120.451 207.585C120.857 206.801 121.06 205.912 121.06 204.918C121.06 203.868 120.864 202.972 120.472 202.23C120.08 201.474 119.534 200.9 118.834 200.508C118.134 200.116 117.329 199.92 116.419 199.92C115.663 199.92 114.963 200.081 114.319 200.403C113.675 200.711 113.185 201.145 112.849 201.705C112.863 199.955 113.094 198.695 113.542 197.925C114.004 197.141 114.718 196.749 115.684 196.749C116.328 196.749 116.818 196.896 117.154 197.19ZM113.878 202.986C114.382 202.552 115.005 202.335 115.747 202.335C116.573 202.335 117.196 202.573 117.616 203.049C118.05 203.525 118.267 204.169 118.267 204.981C118.267 205.765 118.043 206.388 117.595 206.85C117.161 207.312 116.566 207.543 115.81 207.543C114.956 207.543 114.291 207.305 113.815 206.829C113.353 206.353 113.122 205.702 113.122 204.876C113.122 204.05 113.374 203.42 113.878 202.986ZM126.87 197.232H133.674V194.649H124.182V203.637H126.996C127.164 203.147 127.444 202.755 127.836 202.461C128.228 202.167 128.718 202.02 129.306 202.02C130.132 202.02 130.755 202.251 131.175 202.713C131.609 203.161 131.826 203.819 131.826 204.687C131.826 205.541 131.616 206.227 131.196 206.745C130.776 207.263 130.153 207.522 129.327 207.522C128.641 207.522 128.074 207.354 127.626 207.018C127.192 206.682 126.912 206.234 126.786 205.674H123.93C124.056 206.962 124.595 208.005 125.547 208.803C126.499 209.601 127.773 210 129.369 210C131.063 210 132.365 209.51 133.275 208.53C134.199 207.55 134.661 206.255 134.661 204.645C134.661 203.777 134.5 202.965 134.178 202.209C133.856 201.439 133.338 200.809 132.624 200.319C131.91 199.829 130.993 199.584 129.873 199.584C129.257 199.584 128.676 199.703 128.13 199.941C127.584 200.165 127.164 200.459 126.87 200.823V197.232ZM138.2 196.455C137.332 197.827 136.898 199.724 136.898 202.146C136.898 204.582 137.332 206.493 138.2 207.879C139.082 209.265 140.538 209.958 142.568 209.958C144.598 209.958 146.047 209.265 146.915 207.879C147.797 206.493 148.238 204.582 148.238 202.146C148.238 199.724 147.797 197.827 146.915 196.455C146.047 195.083 144.598 194.397 142.568 194.397C140.538 194.397 139.082 195.083 138.2 196.455ZM145.13 199.542C145.27 200.242 145.34 201.11 145.34 202.146C145.34 203.21 145.277 204.106 145.151 204.834C145.025 205.548 144.759 206.129 144.353 206.577C143.947 207.011 143.352 207.228 142.568 207.228C141.784 207.228 141.189 207.011 140.783 206.577C140.377 206.129 140.111 205.548 139.985 204.834C139.859 204.106 139.796 203.21 139.796 202.146C139.796 201.11 139.859 200.242 139.985 199.542C140.125 198.828 140.391 198.247 140.783 197.799C141.189 197.351 141.784 197.127 142.568 197.127C143.352 197.127 143.94 197.351 144.332 197.799C144.738 198.247 145.004 198.828 145.13 199.542Z" fill="#01D0A0"/>
</svg>
