<svg xmlns="http://www.w3.org/2000/svg" width="420" height="250" fill="none" viewBox="0 0 420 250"><path fill="#01D0A0" fill-rule="evenodd" d="M15 0C6.71573 0 0 6.71573 0 15V105C11.0457 105 20 113.954 20 125C20 136.046 11.0457 145 0 145V235C0 243.284 6.71572 250 15 250H405C413.284 250 420 243.284 420 235V145C408.954 145 400 136.046 400 125C400 113.954 408.954 105 420 105V15C420 6.71573 413.284 0 405 0H15ZM107.56 60.2V63.88H121.56V71H98.28V43H121.04V50.12H107.56V53.4H119.4V60.2H107.56ZM138.154 68.146V71H146.554V59.24C146.554 55.5867 145.514 52.92 143.434 51.24C141.381 49.56 138.474 48.72 134.714 48.72C133.007 48.72 131.261 48.9333 129.474 49.36C127.687 49.7867 126.154 50.4 124.874 51.2L127.754 57.16C128.474 56.6267 129.341 56.2133 130.354 55.92C131.367 55.6 132.367 55.44 133.354 55.44C134.821 55.44 135.874 55.72 136.514 56.28C137.022 56.7064 137.336 57.2798 137.457 58H133.834C131.567 58 129.687 58.2533 128.194 58.76C126.727 59.2667 125.634 60.0133 124.914 61C124.194 61.9867 123.834 63.1867 123.834 64.6C123.834 65.8533 124.141 67 124.754 68.04C125.367 69.0533 126.274 69.8667 127.474 70.48C128.674 71.0933 130.167 71.4 131.954 71.4C133.847 71.4 135.354 71 136.474 70.2C137.194 69.686 137.754 69.0013 138.154 68.146ZM137.514 63.88V62.36H135.274C134.314 62.36 133.607 62.52 133.154 62.84C132.727 63.1333 132.514 63.5867 132.514 64.2C132.514 64.7067 132.701 65.1333 133.074 65.48C133.474 65.8 134.007 65.96 134.674 65.96C135.287 65.96 135.847 65.8 136.354 65.48C136.887 65.1333 137.274 64.6 137.514 63.88ZM150.461 49.12V71H159.501V61.28C159.501 59.5467 159.928 58.3333 160.781 57.64C161.661 56.92 162.781 56.56 164.141 56.56C164.461 56.56 164.768 56.5733 165.061 56.6C165.381 56.6267 165.741 56.6667 166.141 56.72V48.72C164.088 48.72 162.328 49.1467 160.861 50C160.173 50.4003 159.573 50.8945 159.061 51.4826V49.12H150.461ZM168.703 41.32V71H177.743V41.32H168.703ZM182.87 78.6C184.123 78.9733 185.35 79.16 186.55 79.16C188.097 79.16 189.51 78.9333 190.79 78.48C192.097 78.0267 193.27 77.24 194.31 76.12C195.377 75 196.31 73.44 197.11 71.44L206.11 49.12H197.55L192.947 60.8521L188.43 49.12H179.15L188.359 71.252C188.232 71.4015 188.096 71.5308 187.95 71.64C187.523 71.9867 186.91 72.16 186.11 72.16C185.577 72.16 185.017 72.0533 184.43 71.84C183.87 71.6267 183.363 71.3467 182.91 71L179.91 77.2C180.657 77.7867 181.643 78.2533 182.87 78.6ZM219.764 43V71H235.524C239.391 71 242.324 70.32 244.324 68.96C246.351 67.6 247.364 65.7067 247.364 63.28C247.364 61.6533 246.924 60.2667 246.044 59.12C245.191 57.9467 243.964 57.0533 242.364 56.44C242.304 56.4164 242.243 56.3932 242.181 56.3705C243.316 55.7759 244.204 55.0257 244.844 54.12C245.644 53 246.044 51.7333 246.044 50.32C246.044 48.1867 245.124 46.44 243.284 45.08C241.444 43.6933 238.591 43 234.724 43H219.764ZM234.724 64.4H229.044V60H234.724C235.764 60 236.538 60.1867 237.044 60.56C237.578 60.9333 237.844 61.48 237.844 62.2C237.844 62.92 237.578 63.4667 237.044 63.84C236.538 64.2133 235.764 64.4 234.724 64.4ZM229.044 53.76V49.6H233.444C234.511 49.6 235.284 49.7733 235.764 50.12C236.271 50.4667 236.524 50.9867 236.524 51.68C236.524 52.3467 236.271 52.8667 235.764 53.24C235.284 53.5867 234.511 53.76 233.444 53.76H229.044ZM250.422 49.12V71H259.462V49.12H250.422ZM250.982 46.04C251.969 46.92 253.289 47.36 254.942 47.36C256.595 47.36 257.915 46.92 258.902 46.04C259.889 45.1333 260.382 43.9867 260.382 42.6C260.382 41.2933 259.889 40.2267 258.902 39.4C257.915 38.5733 256.595 38.16 254.942 38.16C253.289 38.16 251.969 38.6 250.982 39.48C249.995 40.36 249.502 41.4533 249.502 42.76C249.502 44.0667 249.995 45.16 250.982 46.04ZM263.469 49.12V71H272.509V61.28C272.509 59.5467 272.935 58.3333 273.789 57.64C274.669 56.92 275.789 56.56 277.149 56.56C277.469 56.56 277.775 56.5733 278.069 56.6C278.389 56.6267 278.749 56.6667 279.149 56.72V48.72C277.095 48.72 275.335 49.1467 273.869 50C273.181 50.4003 272.581 50.8945 272.069 51.4826V49.12H263.469ZM285.836 70.04C287.462 70.9467 289.222 71.4 291.116 71.4C293.142 71.4 294.756 71 295.956 70.2C296.385 69.9202 296.771 69.5865 297.116 69.199V71H305.716V41.32H296.676V50.6235C296.415 50.3762 296.135 50.155 295.836 49.96C294.609 49.1333 293.036 48.72 291.116 48.72C289.222 48.72 287.462 49.1733 285.836 50.08C284.236 50.9867 282.956 52.2933 281.996 54C281.036 55.68 280.556 57.6933 280.556 60.04C280.556 62.3867 281.036 64.4133 281.996 66.12C282.956 67.8 284.236 69.1067 285.836 70.04ZM295.076 63.88C294.542 64.2 293.942 64.36 293.276 64.36C292.609 64.36 292.009 64.2 291.476 63.88C290.942 63.56 290.516 63.08 290.196 62.44C289.876 61.7733 289.716 60.9733 289.716 60.04C289.716 59.08 289.876 58.2933 290.196 57.68C290.516 57.04 290.942 56.56 291.476 56.24C292.009 55.92 292.609 55.76 293.276 55.76C293.942 55.76 294.542 55.92 295.076 56.24C295.609 56.56 296.036 57.04 296.356 57.68C296.676 58.2933 296.836 59.08 296.836 60.04C296.836 60.9733 296.676 61.7733 296.356 62.44C296.036 63.08 295.609 63.56 295.076 63.88ZM104.36 99.32V120H113.8V99.32H122V92H96.16V99.32H104.36ZM124.172 98.12V120H133.212V98.12H124.172ZM124.732 95.04C125.719 95.92 127.039 96.36 128.692 96.36C130.345 96.36 131.665 95.92 132.652 95.04C133.639 94.1333 134.132 92.9867 134.132 91.6C134.132 90.2933 133.639 89.2267 132.652 88.4C131.665 87.5733 130.345 87.16 128.692 87.16C127.039 87.16 125.719 87.6 124.732 88.48C123.745 89.36 123.252 90.4533 123.252 91.76C123.252 93.0667 123.745 94.16 124.732 95.04ZM142.299 118.96C144.245 119.92 146.472 120.4 148.979 120.4C151.645 120.4 153.925 119.827 155.819 118.68C157.712 117.533 159.019 115.947 159.739 113.92L152.739 110.48C152.285 111.493 151.725 112.227 151.059 112.68C150.419 113.133 149.712 113.36 148.939 113.36C148.272 113.36 147.645 113.2 147.059 112.88C146.499 112.56 146.045 112.08 145.699 111.44C145.379 110.8 145.219 110 145.219 109.04C145.219 108.08 145.379 107.293 145.699 106.68C146.045 106.04 146.499 105.56 147.059 105.24C147.645 104.92 148.272 104.76 148.939 104.76C149.712 104.76 150.419 104.987 151.059 105.44C151.725 105.893 152.285 106.627 152.739 107.64L159.739 104.2C159.019 102.173 157.712 100.587 155.819 99.44C153.925 98.2933 151.645 97.72 148.979 97.72C146.472 97.72 144.245 98.2 142.299 99.16C140.352 100.12 138.819 101.453 137.699 103.16C136.605 104.867 136.059 106.827 136.059 109.04C136.059 111.253 136.605 113.227 137.699 114.96C138.819 116.667 140.352 118 142.299 118.96ZM170.868 114.829V120H161.828V90.32H170.868V104.466L177.148 98.12H187.828L178.788 107.594L188.548 120H177.628L172.325 113.283L170.868 114.829ZM194.447 118.92C196.447 119.907 198.781 120.4 201.447 120.4C203.634 120.4 205.501 120.107 207.047 119.52C208.621 118.907 209.941 118.027 211.007 116.88L206.287 112.12C205.567 112.653 204.874 113.053 204.207 113.32C203.567 113.587 202.741 113.72 201.727 113.72C200.741 113.72 199.901 113.56 199.207 113.24C198.514 112.893 197.981 112.387 197.607 111.72C197.508 111.543 197.422 111.356 197.349 111.16H212.527C212.554 110.84 212.581 110.493 212.607 110.12C212.634 109.72 212.647 109.36 212.647 109.04C212.647 106.56 212.087 104.48 210.967 102.8C209.874 101.12 208.407 99.8533 206.567 99C204.754 98.1467 202.767 97.72 200.607 97.72C198.261 97.72 196.141 98.2 194.247 99.16C192.381 100.12 190.901 101.453 189.807 103.16C188.741 104.867 188.207 106.827 188.207 109.04C188.207 111.2 188.754 113.147 189.847 114.88C190.941 116.587 192.474 117.933 194.447 118.92ZM197.153 106.8C197.226 106.432 197.338 106.099 197.487 105.8C197.781 105.187 198.194 104.72 198.727 104.4C199.287 104.053 199.941 103.88 200.687 103.88C201.434 103.88 202.074 104.053 202.607 104.4C203.141 104.72 203.554 105.187 203.847 105.8C204.01 106.099 204.132 106.432 204.212 106.8H197.153ZM219.02 118.24C220.7 119.68 223.047 120.4 226.06 120.4C227.127 120.4 228.14 120.307 229.1 120.12C230.087 119.933 230.927 119.64 231.62 119.24L229.46 112.96C228.873 113.36 228.193 113.56 227.42 113.56C226.887 113.56 226.433 113.373 226.06 113C225.713 112.627 225.54 112.107 225.54 111.44V105.92H230.02V99.32H225.54V93.2H216.5V99.32H213.5V105.92H216.5V111.52C216.5 114.533 217.34 116.773 219.02 118.24ZM236.938 119.8C238.752 120.2 240.592 120.4 242.458 120.4C244.992 120.4 247.098 120.067 248.778 119.4C250.458 118.707 251.712 117.8 252.538 116.68C253.365 115.533 253.778 114.307 253.778 113C253.778 111.747 253.552 110.72 253.098 109.92C252.645 109.093 252.045 108.44 251.298 107.96C250.552 107.48 249.725 107.12 248.818 106.88C247.938 106.613 247.045 106.427 246.138 106.32C245.258 106.187 244.445 106.08 243.698 106C242.952 105.92 242.352 105.8 241.898 105.64C241.445 105.48 241.218 105.24 241.218 104.92C241.218 104.653 241.418 104.413 241.818 104.2C242.245 103.987 243.032 103.88 244.178 103.88C245.112 103.88 246.112 104 247.178 104.24C248.272 104.453 249.378 104.867 250.498 105.48L252.978 99.52C251.832 98.9067 250.458 98.4533 248.858 98.16C247.258 97.8667 245.658 97.72 244.058 97.72C241.605 97.72 239.538 98.0667 237.858 98.76C236.205 99.4267 234.952 100.32 234.098 101.44C233.272 102.56 232.858 103.813 232.858 105.2C232.858 106.453 233.085 107.493 233.538 108.32C233.992 109.12 234.592 109.76 235.338 110.24C236.085 110.72 236.912 111.08 237.818 111.32C238.725 111.56 239.618 111.747 240.498 111.88C241.405 111.987 242.232 112.08 242.978 112.16C243.725 112.24 244.325 112.36 244.778 112.52C245.232 112.653 245.458 112.88 245.458 113.2C245.458 113.52 245.258 113.773 244.858 113.96C244.485 114.147 243.752 114.24 242.658 114.24C241.352 114.24 240.005 114.067 238.618 113.72C237.258 113.373 236.058 112.893 235.018 112.28L232.538 118.24C233.658 118.88 235.125 119.4 236.938 119.8ZM111.984 177H108.624L101.016 165.504V177H97.656V160.224H101.016L108.624 171.744V160.224H111.984V177ZM121.208 177.216C119.928 177.216 118.776 176.936 117.752 176.376C116.728 175.8 115.92 174.992 115.328 173.952C114.752 172.912 114.464 171.712 114.464 170.352C114.464 168.992 114.76 167.792 115.352 166.752C115.96 165.712 116.784 164.912 117.824 164.352C118.864 163.776 120.024 163.488 121.304 163.488C122.584 163.488 123.744 163.776 124.784 164.352C125.824 164.912 126.64 165.712 127.232 166.752C127.84 167.792 128.144 168.992 128.144 170.352C128.144 171.712 127.832 172.912 127.208 173.952C126.6 174.992 125.768 175.8 124.712 176.376C123.672 176.936 122.504 177.216 121.208 177.216ZM121.208 174.288C121.816 174.288 122.384 174.144 122.912 173.856C123.456 173.552 123.888 173.104 124.208 172.512C124.528 171.92 124.688 171.2 124.688 170.352C124.688 169.088 124.352 168.12 123.68 167.448C123.024 166.76 122.216 166.416 121.256 166.416C120.296 166.416 119.488 166.76 118.832 167.448C118.192 168.12 117.872 169.088 117.872 170.352C117.872 171.616 118.184 172.592 118.808 173.28C119.448 173.952 120.248 174.288 121.208 174.288ZM137.977 163.512C139.561 163.512 140.841 164.016 141.817 165.024C142.793 166.016 143.281 167.408 143.281 169.2V177H139.921V169.656C139.921 168.6 139.657 167.792 139.129 167.232C138.601 166.656 137.881 166.368 136.969 166.368C136.041 166.368 135.305 166.656 134.761 167.232C134.233 167.792 133.969 168.6 133.969 169.656V177H130.609V163.704H133.969V165.36C134.417 164.784 134.985 164.336 135.673 164.016C136.377 163.68 137.145 163.512 137.977 163.512ZM156.7 167.016V169.848H146.524V167.016H156.7ZM163.829 160.248V177H160.469V160.248H163.829ZM170.508 162.96V167.16H176.148V169.824H170.508V174.264H176.868V177H167.148V160.224H176.868V162.96H170.508ZM183.282 162.96V167.16H188.922V169.824H183.282V174.264H189.642V177H179.922V160.224H189.642V162.96H183.282ZM196.055 162.96V167.16H201.695V169.824H196.055V174.264H202.415V177H192.695V160.224H202.415V162.96H196.055ZM229.451 160.248V177H226.091V166.104L221.603 177H219.059L214.547 166.104V177H211.187V160.248H215.003L220.331 172.704L225.659 160.248H229.451ZM245.133 170.064C245.133 170.544 245.101 170.976 245.037 171.36H235.317C235.397 172.32 235.733 173.072 236.325 173.616C236.917 174.16 237.645 174.432 238.509 174.432C239.757 174.432 240.645 173.896 241.173 172.824H244.797C244.413 174.104 243.677 175.16 242.589 175.992C241.501 176.808 240.165 177.216 238.581 177.216C237.301 177.216 236.149 176.936 235.125 176.376C234.117 175.8 233.325 174.992 232.749 173.952C232.189 172.912 231.909 171.712 231.909 170.352C231.909 168.976 232.189 167.768 232.749 166.728C233.309 165.688 234.093 164.888 235.101 164.328C236.109 163.768 237.269 163.488 238.581 163.488C239.845 163.488 240.973 163.76 241.965 164.304C242.973 164.848 243.749 165.624 244.293 166.632C244.853 167.624 245.133 168.768 245.133 170.064ZM241.653 169.104C241.637 168.24 241.325 167.552 240.717 167.04C240.109 166.512 239.365 166.248 238.485 166.248C237.653 166.248 236.949 166.504 236.373 167.016C235.813 167.512 235.469 168.208 235.341 169.104H241.653ZM264.098 163.512C265.73 163.512 267.042 164.016 268.034 165.024C269.042 166.016 269.546 167.408 269.546 169.2V177H266.186V169.656C266.186 168.616 265.922 167.824 265.394 167.28C264.866 166.72 264.146 166.44 263.234 166.44C262.322 166.44 261.594 166.72 261.05 167.28C260.522 167.824 260.258 168.616 260.258 169.656V177H256.898V169.656C256.898 168.616 256.634 167.824 256.106 167.28C255.578 166.72 254.858 166.44 253.946 166.44C253.018 166.44 252.282 166.72 251.738 167.28C251.21 167.824 250.946 168.616 250.946 169.656V177H247.586V163.704H250.946V165.312C251.378 164.752 251.93 164.312 252.602 163.992C253.29 163.672 254.042 163.512 254.858 163.512C255.898 163.512 256.826 163.736 257.642 164.184C258.458 164.616 259.09 165.24 259.538 166.056C259.97 165.288 260.594 164.672 261.41 164.208C262.242 163.744 263.138 163.512 264.098 163.512ZM276.094 165.648C276.526 165.008 277.118 164.488 277.87 164.088C278.638 163.688 279.51 163.488 280.486 163.488C281.622 163.488 282.646 163.768 283.558 164.328C284.486 164.888 285.214 165.688 285.742 166.728C286.286 167.752 286.558 168.944 286.558 170.304C286.558 171.664 286.286 172.872 285.742 173.928C285.214 174.968 284.486 175.776 283.558 176.352C282.646 176.928 281.622 177.216 280.486 177.216C279.494 177.216 278.622 177.024 277.87 176.64C277.134 176.24 276.542 175.728 276.094 175.104V177H272.734V159.24H276.094V165.648ZM283.126 170.304C283.126 169.504 282.958 168.816 282.622 168.24C282.302 167.648 281.87 167.2 281.326 166.896C280.798 166.592 280.222 166.44 279.598 166.44C278.99 166.44 278.414 166.6 277.87 166.92C277.342 167.224 276.91 167.672 276.574 168.264C276.254 168.856 276.094 169.552 276.094 170.352C276.094 171.152 276.254 171.848 276.574 172.44C276.91 173.032 277.342 173.488 277.87 173.808C278.414 174.112 278.99 174.264 279.598 174.264C280.222 174.264 280.798 174.104 281.326 173.784C281.87 173.464 282.302 173.008 282.622 172.416C282.958 171.824 283.126 171.12 283.126 170.304ZM301.36 170.064C301.36 170.544 301.328 170.976 301.264 171.36H291.544C291.624 172.32 291.96 173.072 292.552 173.616C293.144 174.16 293.872 174.432 294.736 174.432C295.984 174.432 296.872 173.896 297.4 172.824H301.024C300.64 174.104 299.904 175.16 298.816 175.992C297.728 176.808 296.392 177.216 294.808 177.216C293.528 177.216 292.376 176.936 291.352 176.376C290.344 175.8 289.552 174.992 288.976 173.952C288.416 172.912 288.136 171.712 288.136 170.352C288.136 168.976 288.416 167.768 288.976 166.728C289.536 165.688 290.32 164.888 291.328 164.328C292.336 163.768 293.496 163.488 294.808 163.488C296.072 163.488 297.2 163.76 298.192 164.304C299.2 164.848 299.976 165.624 300.52 166.632C301.08 167.624 301.36 168.768 301.36 170.064ZM297.88 169.104C297.864 168.24 297.552 167.552 296.944 167.04C296.336 166.512 295.592 166.248 294.712 166.248C293.88 166.248 293.176 166.504 292.6 167.016C292.04 167.512 291.696 168.208 291.568 169.104H297.88ZM307.172 165.768C307.604 165.064 308.164 164.512 308.852 164.112C309.556 163.712 310.356 163.512 311.252 163.512V167.04H310.364C309.308 167.04 308.508 167.288 307.964 167.784C307.436 168.28 307.172 169.144 307.172 170.376V177H303.812V163.704H307.172V165.768ZM318.603 177.216C317.515 177.216 316.539 177.024 315.675 176.64C314.811 176.24 314.123 175.704 313.611 175.032C313.115 174.36 312.843 173.616 312.795 172.8H316.179C316.243 173.312 316.491 173.736 316.923 174.072C317.371 174.408 317.923 174.576 318.579 174.576C319.219 174.576 319.715 174.448 320.067 174.192C320.435 173.936 320.619 173.608 320.619 173.208C320.619 172.776 320.395 172.456 319.947 172.248C319.515 172.024 318.819 171.784 317.859 171.528C316.867 171.288 316.051 171.04 315.411 170.784C314.787 170.528 314.243 170.136 313.779 169.608C313.331 169.08 313.107 168.368 313.107 167.472C313.107 166.736 313.315 166.064 313.731 165.456C314.163 164.848 314.771 164.368 315.555 164.016C316.355 163.664 317.291 163.488 318.363 163.488C319.947 163.488 321.211 163.888 322.155 164.688C323.099 165.472 323.619 166.536 323.715 167.88H320.499C320.451 167.352 320.227 166.936 319.827 166.632C319.443 166.312 318.923 166.152 318.267 166.152C317.659 166.152 317.187 166.264 316.851 166.488C316.531 166.712 316.371 167.024 316.371 167.424C316.371 167.872 316.595 168.216 317.043 168.456C317.491 168.68 318.187 168.912 319.131 169.152C320.091 169.392 320.883 169.64 321.507 169.896C322.131 170.152 322.667 170.552 323.115 171.096C323.579 171.624 323.819 172.328 323.835 173.208C323.835 173.976 323.619 174.664 323.187 175.272C322.771 175.88 322.163 176.36 321.363 176.712C320.579 177.048 319.659 177.216 318.603 177.216ZM106.038 198.975V197.379H108.159V195.321H96.882V197.379H103.266V198.975H96.882V200.907H103.161C103.049 201.467 102.818 201.873 102.468 202.125C102.118 202.377 101.586 202.545 100.872 202.629C100.158 202.699 99.052 202.734 97.554 202.734V205.527C97.554 207.053 97.946 208.215 98.73 209.013C99.514 209.811 100.648 210.21 102.132 210.21C103.56 210.21 104.659 209.839 105.429 209.097C106.199 208.341 106.598 207.256 106.626 205.842H103.896C103.896 206.528 103.756 207.053 103.476 207.417C103.196 207.767 102.741 207.942 102.111 207.942C101.453 207.942 100.984 207.753 100.704 207.375C100.438 206.997 100.305 206.479 100.305 205.821V204.708C102.069 204.708 103.385 204.407 104.253 203.805C105.135 203.203 105.688 202.237 105.912 200.907H108.159V198.975H106.038ZM110.413 198.513C110.413 200.039 111.113 201.166 112.513 201.894C111.743 202.216 111.141 202.706 110.707 203.364C110.273 204.008 110.056 204.771 110.056 205.653C110.056 206.605 110.294 207.438 110.77 208.152C111.26 208.852 111.918 209.391 112.744 209.769C113.584 210.147 114.529 210.336 115.579 210.336C116.629 210.336 117.574 210.147 118.414 209.769C119.254 209.391 119.912 208.852 120.388 208.152C120.878 207.438 121.123 206.605 121.123 205.653C121.123 204.771 120.906 204.008 120.472 203.364C120.038 202.72 119.436 202.23 118.666 201.894C119.296 201.572 119.8 201.124 120.178 200.55C120.556 199.962 120.745 199.283 120.745 198.513C120.745 197.757 120.549 197.071 120.157 196.455C119.779 195.825 119.198 195.328 118.414 194.964C117.644 194.586 116.699 194.397 115.579 194.397C114.459 194.397 113.507 194.586 112.723 194.964C111.953 195.328 111.372 195.825 110.98 196.455C110.602 197.071 110.413 197.757 110.413 198.513ZM117.259 197.337C117.679 197.715 117.889 198.247 117.889 198.933C117.889 199.563 117.672 200.074 117.238 200.466C116.804 200.844 116.251 201.033 115.579 201.033C114.907 201.033 114.354 200.844 113.92 200.466C113.5 200.088 113.29 199.584 113.29 198.954C113.29 198.254 113.493 197.715 113.899 197.337C114.319 196.959 114.879 196.77 115.579 196.77C116.293 196.77 116.853 196.959 117.259 197.337ZM113.626 203.784C114.13 203.378 114.781 203.175 115.579 203.175C116.377 203.175 117.021 203.385 117.511 203.805C118.001 204.211 118.246 204.785 118.246 205.527C118.246 206.213 118.008 206.78 117.532 207.228C117.056 207.676 116.405 207.9 115.579 207.9C114.753 207.9 114.095 207.683 113.605 207.249C113.129 206.801 112.891 206.227 112.891 205.527C112.891 204.771 113.136 204.19 113.626 203.784ZM124.747 196.455C123.879 197.827 123.445 199.724 123.445 202.146C123.445 204.582 123.879 206.493 124.747 207.879C125.629 209.265 127.085 209.958 129.115 209.958C131.145 209.958 132.594 209.265 133.462 207.879C134.344 206.493 134.785 204.582 134.785 202.146C134.785 199.724 134.344 197.827 133.462 196.455C132.594 195.083 131.145 194.397 129.115 194.397C127.085 194.397 125.629 195.083 124.747 196.455ZM131.677 199.542C131.817 200.242 131.887 201.11 131.887 202.146C131.887 203.21 131.824 204.106 131.698 204.834C131.572 205.548 131.306 206.129 130.9 206.577C130.494 207.011 129.899 207.228 129.115 207.228C128.331 207.228 127.736 207.011 127.33 206.577C126.924 206.129 126.658 205.548 126.532 204.834C126.406 204.106 126.343 203.21 126.343 202.146C126.343 201.11 126.406 200.242 126.532 199.542C126.672 198.828 126.938 198.247 127.33 197.799C127.736 197.351 128.331 197.127 129.115 197.127C129.899 197.127 130.487 197.351 130.879 197.799C131.285 198.247 131.551 198.828 131.677 199.542ZM138.323 196.455C137.455 197.827 137.021 199.724 137.021 202.146C137.021 204.582 137.455 206.493 138.323 207.879C139.205 209.265 140.661 209.958 142.691 209.958C144.721 209.958 146.17 209.265 147.038 207.879C147.92 206.493 148.361 204.582 148.361 202.146C148.361 199.724 147.92 197.827 147.038 196.455C146.17 195.083 144.721 194.397 142.691 194.397C140.661 194.397 139.205 195.083 138.323 196.455ZM145.253 199.542C145.393 200.242 145.463 201.11 145.463 202.146C145.463 203.21 145.4 204.106 145.274 204.834C145.148 205.548 144.882 206.129 144.476 206.577C144.07 207.011 143.475 207.228 142.691 207.228C141.907 207.228 141.312 207.011 140.906 206.577C140.5 206.129 140.234 205.548 140.108 204.834C139.982 204.106 139.919 203.21 139.919 202.146C139.919 201.11 139.982 200.242 140.108 199.542C140.248 198.828 140.514 198.247 140.906 197.799C141.312 197.351 141.907 197.127 142.691 197.127C143.475 197.127 144.063 197.351 144.455 197.799C144.861 198.247 145.127 198.828 145.253 199.542Z" clip-rule="evenodd"/></svg>