<svg width="340" height="422" viewBox="0 0 340 422" fill="none" xmlns="http://www.w3.org/2000/svg">
<path fill-rule="evenodd" clip-rule="evenodd" d="M15 0C6.71574 0 1.52588e-05 6.71574 1.52588e-05 15L0 194.12C8.94175 194.12 16.1905 201.677 16.1905 211C16.1905 220.323 8.94175 227.88 0 227.88L1.52588e-05 407C1.52588e-05 415.284 6.71574 422 15 422H325C333.284 422 340 415.284 340 407V227.88C331.058 227.88 323.81 220.323 323.81 211C323.81 201.677 331.058 194.12 340 194.12V15C340 6.71573 333.284 0 325 0H15ZM67.56 78.84V82.52H81.56V89.64H58.28V61.64H81.04V68.76H67.56V72.04H79.4V78.84H67.56ZM98.1541 86.786V89.64H106.554V77.88C106.554 74.2267 105.514 71.56 103.434 69.88C101.381 68.2 98.4741 67.36 94.7141 67.36C93.0074 67.36 91.2607 67.5733 89.4741 68C87.6874 68.4267 86.1541 69.04 84.8741 69.84L87.7541 75.8C88.4741 75.2667 89.3407 74.8533 90.3541 74.56C91.3674 74.24 92.3674 74.08 93.3541 74.08C94.8207 74.08 95.8741 74.36 96.5141 74.92C97.0217 75.3464 97.3361 75.9198 97.4572 76.64H93.8341C91.5674 76.64 89.6874 76.8933 88.1941 77.4C86.7274 77.9067 85.6341 78.6533 84.9141 79.64C84.1941 80.6267 83.8341 81.8267 83.8341 83.24C83.8341 84.4933 84.1407 85.64 84.7541 86.68C85.3674 87.6933 86.2741 88.5067 87.4741 89.12C88.6741 89.7333 90.1674 90.04 91.9541 90.04C93.8474 90.04 95.3541 89.64 96.4741 88.84C97.1937 88.326 97.7537 87.6413 98.1541 86.786ZM97.5141 82.52V81H95.2741C94.3141 81 93.6074 81.16 93.1541 81.48C92.7274 81.7733 92.5141 82.2267 92.5141 82.84C92.5141 83.3467 92.7007 83.7733 93.0741 84.12C93.4741 84.44 94.0074 84.6 94.6741 84.6C95.2874 84.6 95.8474 84.44 96.3541 84.12C96.8874 83.7733 97.2741 83.24 97.5141 82.52ZM110.461 67.76V89.64H119.501V79.92C119.501 78.1867 119.928 76.9733 120.781 76.28C121.661 75.56 122.781 75.2 124.141 75.2C124.461 75.2 124.768 75.2133 125.061 75.24C125.381 75.2667 125.741 75.3067 126.141 75.36V67.36C124.088 67.36 122.328 67.7867 120.861 68.64C120.173 69.0403 119.573 69.5345 119.061 70.1226V67.76H110.461ZM128.703 59.96V89.64H137.743V59.96H128.703ZM142.87 97.24C144.123 97.6133 145.35 97.8 146.55 97.8C148.097 97.8 149.51 97.5733 150.79 97.12C152.097 96.6667 153.27 95.88 154.31 94.76C155.377 93.64 156.31 92.08 157.11 90.08L166.11 67.76H157.55L152.947 79.4921L148.43 67.76H139.15L148.359 89.892C148.232 90.0415 148.096 90.1708 147.95 90.28C147.523 90.6267 146.91 90.8 146.11 90.8C145.577 90.8 145.017 90.6933 144.43 90.48C143.87 90.2667 143.363 89.9867 142.91 89.64L139.91 95.84C140.657 96.4267 141.643 96.8933 142.87 97.24ZM179.764 61.64V89.64H195.524C199.391 89.64 202.324 88.96 204.324 87.6C206.351 86.24 207.364 84.3467 207.364 81.92C207.364 80.2933 206.924 78.9067 206.044 77.76C205.191 76.5867 203.964 75.6933 202.364 75.08C202.304 75.0564 202.243 75.0332 202.181 75.0105C203.316 74.4159 204.204 73.6657 204.844 72.76C205.644 71.64 206.044 70.3733 206.044 68.96C206.044 66.8267 205.124 65.08 203.284 63.72C201.444 62.3333 198.591 61.64 194.724 61.64H179.764ZM194.724 83.04H189.044V78.64H194.724C195.764 78.64 196.538 78.8267 197.044 79.2C197.578 79.5733 197.844 80.12 197.844 80.84C197.844 81.56 197.578 82.1067 197.044 82.48C196.538 82.8533 195.764 83.04 194.724 83.04ZM189.044 72.4V68.24H193.444C194.511 68.24 195.284 68.4133 195.764 68.76C196.271 69.1067 196.524 69.6267 196.524 70.32C196.524 70.9867 196.271 71.5067 195.764 71.88C195.284 72.2267 194.511 72.4 193.444 72.4H189.044ZM210.422 67.76V89.64H219.462V67.76H210.422ZM210.982 64.68C211.969 65.56 213.289 66 214.942 66C216.595 66 217.915 65.56 218.902 64.68C219.889 63.7733 220.382 62.6267 220.382 61.24C220.382 59.9333 219.889 58.8667 218.902 58.04C217.915 57.2133 216.595 56.8 214.942 56.8C213.289 56.8 211.969 57.24 210.982 58.12C209.995 59 209.502 60.0933 209.502 61.4C209.502 62.7067 209.995 63.8 210.982 64.68ZM223.469 67.76V89.64H232.509V79.92C232.509 78.1867 232.935 76.9733 233.789 76.28C234.669 75.56 235.789 75.2 237.149 75.2C237.469 75.2 237.775 75.2133 238.069 75.24C238.389 75.2667 238.749 75.3067 239.149 75.36V67.36C237.095 67.36 235.335 67.7867 233.869 68.64C233.181 69.0403 232.581 69.5345 232.069 70.1226V67.76H223.469ZM245.836 88.68C247.462 89.5867 249.222 90.04 251.116 90.04C253.142 90.04 254.756 89.64 255.956 88.84C256.385 88.5602 256.771 88.2265 257.116 87.839V89.64H265.716V59.96H256.676V69.2635C256.415 69.0162 256.135 68.795 255.836 68.6C254.609 67.7733 253.036 67.36 251.116 67.36C249.222 67.36 247.462 67.8133 245.836 68.72C244.236 69.6267 242.956 70.9333 241.996 72.64C241.036 74.32 240.556 76.3333 240.556 78.68C240.556 81.0267 241.036 83.0533 241.996 84.76C242.956 86.44 244.236 87.7467 245.836 88.68ZM255.076 82.52C254.542 82.84 253.942 83 253.276 83C252.609 83 252.009 82.84 251.476 82.52C250.942 82.2 250.516 81.72 250.196 81.08C249.876 80.4133 249.716 79.6133 249.716 78.68C249.716 77.72 249.876 76.9333 250.196 76.32C250.516 75.68 250.942 75.2 251.476 74.88C252.009 74.56 252.609 74.4 253.276 74.4C253.942 74.4 254.542 74.56 255.076 74.88C255.609 75.2 256.036 75.68 256.356 76.32C256.676 76.9333 256.836 77.72 256.836 78.68C256.836 79.6133 256.676 80.4133 256.356 81.08C256.036 81.72 255.609 82.2 255.076 82.52ZM64.36 117.96V138.64H73.8V117.96H82V110.64H56.16V117.96H64.36ZM84.1719 116.76V138.64H93.2119V116.76H84.1719ZM84.7319 113.68C85.7186 114.56 87.0386 115 88.6919 115C90.3452 115 91.6652 114.56 92.6519 113.68C93.6386 112.773 94.1319 111.627 94.1319 110.24C94.1319 108.933 93.6386 107.867 92.6519 107.04C91.6652 106.213 90.3452 105.8 88.6919 105.8C87.0386 105.8 85.7186 106.24 84.7319 107.12C83.7452 108 83.2519 109.093 83.2519 110.4C83.2519 111.707 83.7452 112.8 84.7319 113.68ZM102.299 137.6C104.245 138.56 106.472 139.04 108.979 139.04C111.645 139.04 113.925 138.467 115.819 137.32C117.712 136.173 119.019 134.587 119.739 132.56L112.739 129.12C112.285 130.133 111.725 130.867 111.059 131.32C110.419 131.773 109.712 132 108.939 132C108.272 132 107.645 131.84 107.059 131.52C106.499 131.2 106.045 130.72 105.699 130.08C105.379 129.44 105.219 128.64 105.219 127.68C105.219 126.72 105.379 125.933 105.699 125.32C106.045 124.68 106.499 124.2 107.059 123.88C107.645 123.56 108.272 123.4 108.939 123.4C109.712 123.4 110.419 123.627 111.059 124.08C111.725 124.533 112.285 125.267 112.739 126.28L119.739 122.84C119.019 120.813 117.712 119.227 115.819 118.08C113.925 116.933 111.645 116.36 108.979 116.36C106.472 116.36 104.245 116.84 102.299 117.8C100.352 118.76 98.8188 120.093 97.6988 121.8C96.6054 123.507 96.0588 125.467 96.0588 127.68C96.0588 129.893 96.6054 131.867 97.6988 133.6C98.8188 135.307 100.352 136.64 102.299 137.6ZM130.868 133.469V138.64H121.828V108.96H130.868V123.106L137.148 116.76H147.828L138.788 126.234L148.548 138.64H137.628L132.325 131.923L130.868 133.469ZM154.447 137.56C156.447 138.547 158.781 139.04 161.447 139.04C163.634 139.04 165.501 138.747 167.047 138.16C168.621 137.547 169.941 136.667 171.007 135.52L166.287 130.76C165.567 131.293 164.874 131.693 164.207 131.96C163.567 132.227 162.741 132.36 161.727 132.36C160.741 132.36 159.901 132.2 159.207 131.88C158.514 131.533 157.981 131.027 157.607 130.36C157.508 130.183 157.422 129.996 157.349 129.8H172.527C172.554 129.48 172.581 129.133 172.607 128.76C172.634 128.36 172.647 128 172.647 127.68C172.647 125.2 172.087 123.12 170.967 121.44C169.874 119.76 168.407 118.493 166.567 117.64C164.754 116.787 162.767 116.36 160.607 116.36C158.261 116.36 156.141 116.84 154.247 117.8C152.381 118.76 150.901 120.093 149.807 121.8C148.741 123.507 148.207 125.467 148.207 127.68C148.207 129.84 148.754 131.787 149.847 133.52C150.941 135.227 152.474 136.573 154.447 137.56ZM157.153 125.44C157.226 125.072 157.338 124.739 157.487 124.44C157.781 123.827 158.194 123.36 158.727 123.04C159.287 122.693 159.941 122.52 160.687 122.52C161.434 122.52 162.074 122.693 162.607 123.04C163.141 123.36 163.554 123.827 163.847 124.44C164.01 124.739 164.132 125.072 164.212 125.44H157.153ZM179.02 136.88C180.7 138.32 183.047 139.04 186.06 139.04C187.127 139.04 188.14 138.947 189.1 138.76C190.087 138.573 190.927 138.28 191.62 137.88L189.46 131.6C188.873 132 188.193 132.2 187.42 132.2C186.887 132.2 186.433 132.013 186.06 131.64C185.713 131.267 185.54 130.747 185.54 130.08V124.56H190.02V117.96H185.54V111.84H176.5V117.96H173.5V124.56H176.5V130.16C176.5 133.173 177.34 135.413 179.02 136.88ZM196.938 138.44C198.752 138.84 200.592 139.04 202.458 139.04C204.992 139.04 207.098 138.707 208.778 138.04C210.458 137.347 211.712 136.44 212.538 135.32C213.365 134.173 213.778 132.947 213.778 131.64C213.778 130.387 213.552 129.36 213.098 128.56C212.645 127.733 212.045 127.08 211.298 126.6C210.552 126.12 209.725 125.76 208.818 125.52C207.938 125.253 207.045 125.067 206.138 124.96C205.258 124.827 204.445 124.72 203.698 124.64C202.952 124.56 202.352 124.44 201.898 124.28C201.445 124.12 201.218 123.88 201.218 123.56C201.218 123.293 201.418 123.053 201.818 122.84C202.245 122.627 203.032 122.52 204.178 122.52C205.112 122.52 206.112 122.64 207.178 122.88C208.272 123.093 209.378 123.507 210.498 124.12L212.978 118.16C211.832 117.547 210.458 117.093 208.858 116.8C207.258 116.507 205.658 116.36 204.058 116.36C201.605 116.36 199.538 116.707 197.858 117.4C196.205 118.067 194.952 118.96 194.098 120.08C193.272 121.2 192.858 122.453 192.858 123.84C192.858 125.093 193.085 126.133 193.538 126.96C193.992 127.76 194.592 128.4 195.338 128.88C196.085 129.36 196.912 129.72 197.818 129.96C198.725 130.2 199.618 130.387 200.498 130.52C201.405 130.627 202.232 130.72 202.978 130.8C203.725 130.88 204.325 131 204.778 131.16C205.232 131.293 205.458 131.52 205.458 131.84C205.458 132.16 205.258 132.413 204.858 132.6C204.485 132.787 203.752 132.88 202.658 132.88C201.352 132.88 200.005 132.707 198.618 132.36C197.258 132.013 196.058 131.533 195.018 130.92L192.538 136.88C193.658 137.52 195.125 138.04 196.938 138.44ZM61.016 193.888V210.64H57.656V193.888H61.016ZM67.6957 196.6V200.8H73.3357V203.464H67.6957V207.904H74.0557V210.64H64.3357V193.864H74.0557V196.6H67.6957ZM80.4691 196.6V200.8H86.1091V203.464H80.4691V207.904H86.8291V210.64H77.1091V193.864H86.8291V196.6H80.4691ZM93.2426 196.6V200.8H98.8826V203.464H93.2426V207.904H99.6026V210.64H89.8826V193.864H99.6026V196.6H93.2426ZM126.639 193.888V210.64H123.279V199.744L118.791 210.64H116.247L111.735 199.744V210.64H108.375V193.888H112.191L117.519 206.344L122.847 193.888H126.639ZM142.321 203.704C142.321 204.184 142.289 204.616 142.225 205H132.505C132.585 205.96 132.921 206.712 133.513 207.256C134.105 207.8 134.833 208.072 135.697 208.072C136.945 208.072 137.833 207.536 138.361 206.464H141.985C141.601 207.744 140.865 208.8 139.777 209.632C138.689 210.448 137.353 210.856 135.769 210.856C134.489 210.856 133.337 210.576 132.313 210.016C131.305 209.44 130.513 208.632 129.937 207.592C129.377 206.552 129.097 205.352 129.097 203.992C129.097 202.616 129.377 201.408 129.937 200.368C130.497 199.328 131.281 198.528 132.289 197.968C133.297 197.408 134.457 197.128 135.769 197.128C137.033 197.128 138.161 197.4 139.153 197.944C140.161 198.488 140.937 199.264 141.481 200.272C142.041 201.264 142.321 202.408 142.321 203.704ZM138.841 202.744C138.825 201.88 138.513 201.192 137.905 200.68C137.297 200.152 136.553 199.888 135.673 199.888C134.841 199.888 134.137 200.144 133.561 200.656C133.001 201.152 132.657 201.848 132.529 202.744H138.841ZM161.285 197.152C162.917 197.152 164.229 197.656 165.221 198.664C166.229 199.656 166.733 201.048 166.733 202.84V210.64H163.373V203.296C163.373 202.256 163.109 201.464 162.581 200.92C162.053 200.36 161.333 200.08 160.421 200.08C159.509 200.08 158.781 200.36 158.237 200.92C157.709 201.464 157.445 202.256 157.445 203.296V210.64H154.085V203.296C154.085 202.256 153.821 201.464 153.293 200.92C152.765 200.36 152.045 200.08 151.133 200.08C150.205 200.08 149.469 200.36 148.925 200.92C148.397 201.464 148.133 202.256 148.133 203.296V210.64H144.773V197.344H148.133V198.952C148.565 198.392 149.117 197.952 149.789 197.632C150.477 197.312 151.229 197.152 152.045 197.152C153.085 197.152 154.013 197.376 154.829 197.824C155.645 198.256 156.277 198.88 156.725 199.696C157.157 198.928 157.781 198.312 158.597 197.848C159.429 197.384 160.325 197.152 161.285 197.152ZM173.282 199.288C173.714 198.648 174.306 198.128 175.058 197.728C175.826 197.328 176.698 197.128 177.674 197.128C178.81 197.128 179.834 197.408 180.746 197.968C181.674 198.528 182.402 199.328 182.93 200.368C183.474 201.392 183.746 202.584 183.746 203.944C183.746 205.304 183.474 206.512 182.93 207.568C182.402 208.608 181.674 209.416 180.746 209.992C179.834 210.568 178.81 210.856 177.674 210.856C176.682 210.856 175.81 210.664 175.058 210.28C174.322 209.88 173.73 209.368 173.282 208.744V210.64H169.922V192.88H173.282V199.288ZM180.314 203.944C180.314 203.144 180.146 202.456 179.81 201.88C179.49 201.288 179.058 200.84 178.514 200.536C177.986 200.232 177.41 200.08 176.786 200.08C176.178 200.08 175.602 200.24 175.058 200.56C174.53 200.864 174.098 201.312 173.762 201.904C173.442 202.496 173.282 203.192 173.282 203.992C173.282 204.792 173.442 205.488 173.762 206.08C174.098 206.672 174.53 207.128 175.058 207.448C175.602 207.752 176.178 207.904 176.786 207.904C177.41 207.904 177.986 207.744 178.514 207.424C179.058 207.104 179.49 206.648 179.81 206.056C180.146 205.464 180.314 204.76 180.314 203.944ZM198.547 203.704C198.547 204.184 198.515 204.616 198.451 205H188.731C188.811 205.96 189.147 206.712 189.739 207.256C190.331 207.8 191.059 208.072 191.923 208.072C193.171 208.072 194.059 207.536 194.587 206.464H198.211C197.827 207.744 197.091 208.8 196.003 209.632C194.915 210.448 193.579 210.856 191.995 210.856C190.715 210.856 189.563 210.576 188.539 210.016C187.531 209.44 186.739 208.632 186.163 207.592C185.603 206.552 185.323 205.352 185.323 203.992C185.323 202.616 185.603 201.408 186.163 200.368C186.723 199.328 187.507 198.528 188.515 197.968C189.523 197.408 190.683 197.128 191.995 197.128C193.259 197.128 194.387 197.4 195.379 197.944C196.387 198.488 197.163 199.264 197.707 200.272C198.267 201.264 198.547 202.408 198.547 203.704ZM195.067 202.744C195.051 201.88 194.739 201.192 194.131 200.68C193.523 200.152 192.779 199.888 191.899 199.888C191.067 199.888 190.363 200.144 189.787 200.656C189.227 201.152 188.883 201.848 188.755 202.744H195.067ZM204.36 199.408C204.792 198.704 205.352 198.152 206.04 197.752C206.744 197.352 207.544 197.152 208.44 197.152V200.68H207.552C206.496 200.68 205.696 200.928 205.152 201.424C204.624 201.92 204.36 202.784 204.36 204.016V210.64H201V197.344H204.36V199.408ZM215.791 210.856C214.703 210.856 213.727 210.664 212.863 210.28C211.999 209.88 211.311 209.344 210.799 208.672C210.303 208 210.031 207.256 209.983 206.44H213.367C213.431 206.952 213.679 207.376 214.111 207.712C214.559 208.048 215.111 208.216 215.767 208.216C216.407 208.216 216.903 208.088 217.255 207.832C217.623 207.576 217.807 207.248 217.807 206.848C217.807 206.416 217.583 206.096 217.135 205.888C216.703 205.664 216.007 205.424 215.047 205.168C214.055 204.928 213.239 204.68 212.599 204.424C211.975 204.168 211.431 203.776 210.967 203.248C210.519 202.72 210.295 202.008 210.295 201.112C210.295 200.376 210.503 199.704 210.919 199.096C211.351 198.488 211.959 198.008 212.743 197.656C213.543 197.304 214.479 197.128 215.551 197.128C217.135 197.128 218.399 197.528 219.343 198.328C220.287 199.112 220.807 200.176 220.903 201.52H217.687C217.639 200.992 217.415 200.576 217.015 200.272C216.631 199.952 216.111 199.792 215.455 199.792C214.847 199.792 214.375 199.904 214.039 200.128C213.719 200.352 213.559 200.664 213.559 201.064C213.559 201.512 213.783 201.856 214.231 202.096C214.679 202.32 215.375 202.552 216.319 202.792C217.279 203.032 218.071 203.28 218.695 203.536C219.319 203.792 219.855 204.192 220.303 204.736C220.767 205.264 221.007 205.968 221.023 206.848C221.023 207.616 220.807 208.304 220.375 208.912C219.959 209.52 219.351 210 218.551 210.352C217.767 210.688 216.847 210.856 215.791 210.856ZM66.038 228.615V227.019H68.159V224.961H56.882V227.019H63.266V228.615H56.882V230.547H63.161C63.049 231.107 62.818 231.513 62.468 231.765C62.118 232.017 61.586 232.185 60.872 232.269C60.158 232.339 59.052 232.374 57.554 232.374V235.167C57.554 236.693 57.946 237.855 58.73 238.653C59.514 239.451 60.648 239.85 62.132 239.85C63.56 239.85 64.659 239.479 65.429 238.737C66.199 237.981 66.598 236.896 66.626 235.482H63.896C63.896 236.168 63.756 236.693 63.476 237.057C63.196 237.407 62.741 237.582 62.111 237.582C61.453 237.582 60.984 237.393 60.704 237.015C60.438 236.637 60.305 236.119 60.305 235.461V234.348C62.069 234.348 63.385 234.047 64.253 233.445C65.135 232.843 65.688 231.877 65.912 230.547H68.159V228.615H66.038ZM70.4129 228.153C70.4129 229.679 71.1129 230.806 72.5129 231.534C71.7429 231.856 71.1409 232.346 70.7069 233.004C70.2729 233.648 70.0559 234.411 70.0559 235.293C70.0559 236.245 70.2939 237.078 70.7699 237.792C71.2599 238.492 71.9179 239.031 72.7439 239.409C73.5839 239.787 74.5289 239.976 75.5789 239.976C76.6289 239.976 77.5739 239.787 78.4139 239.409C79.2539 239.031 79.9119 238.492 80.3879 237.792C80.8779 237.078 81.1229 236.245 81.1229 235.293C81.1229 234.411 80.9059 233.648 80.4719 233.004C80.0379 232.36 79.4359 231.87 78.6659 231.534C79.2959 231.212 79.7999 230.764 80.1779 230.19C80.5559 229.602 80.7449 228.923 80.7449 228.153C80.7449 227.397 80.5489 226.711 80.1569 226.095C79.7789 225.465 79.1979 224.968 78.4139 224.604C77.6439 224.226 76.6989 224.037 75.5789 224.037C74.4589 224.037 73.5069 224.226 72.7229 224.604C71.9529 224.968 71.3719 225.465 70.9799 226.095C70.6019 226.711 70.4129 227.397 70.4129 228.153ZM77.2589 226.977C77.6789 227.355 77.8889 227.887 77.8889 228.573C77.8889 229.203 77.6719 229.714 77.2379 230.106C76.8039 230.484 76.2509 230.673 75.5789 230.673C74.9069 230.673 74.3539 230.484 73.9199 230.106C73.4999 229.728 73.2899 229.224 73.2899 228.594C73.2899 227.894 73.4929 227.355 73.8989 226.977C74.3189 226.599 74.8789 226.41 75.5789 226.41C76.2929 226.41 76.8529 226.599 77.2589 226.977ZM73.6259 233.424C74.1299 233.018 74.7809 232.815 75.5789 232.815C76.3769 232.815 77.0209 233.025 77.5109 233.445C78.0009 233.851 78.2459 234.425 78.2459 235.167C78.2459 235.853 78.0079 236.42 77.5319 236.868C77.0559 237.316 76.4049 237.54 75.5789 237.54C74.7529 237.54 74.0949 237.323 73.6049 236.889C73.1289 236.441 72.8909 235.867 72.8909 235.167C72.8909 234.411 73.1359 233.83 73.6259 233.424ZM86.931 226.872H93.735V224.289H84.243V233.277H87.057C87.225 232.787 87.5051 232.395 87.897 232.101C88.289 231.807 88.779 231.66 89.3671 231.66C90.193 231.66 90.816 231.891 91.236 232.353C91.67 232.801 91.887 233.459 91.887 234.327C91.887 235.181 91.677 235.867 91.257 236.385C90.837 236.903 90.2141 237.162 89.388 237.162C88.702 237.162 88.135 236.994 87.687 236.658C87.253 236.322 86.973 235.874 86.847 235.314H83.991C84.1171 236.602 84.656 237.645 85.608 238.443C86.56 239.241 87.834 239.64 89.43 239.64C91.124 239.64 92.426 239.15 93.336 238.17C94.26 237.19 94.722 235.895 94.722 234.285C94.722 233.417 94.5611 232.605 94.239 231.849C93.917 231.079 93.399 230.449 92.685 229.959C91.971 229.469 91.054 229.224 89.934 229.224C89.318 229.224 88.737 229.343 88.191 229.581C87.6451 229.805 87.225 230.099 86.931 230.463V226.872ZM98.2617 226.095C97.3937 227.467 96.9597 229.364 96.9597 231.786C96.9597 234.222 97.3937 236.133 98.2617 237.519C99.1437 238.905 100.6 239.598 102.63 239.598C104.66 239.598 106.109 238.905 106.977 237.519C107.859 236.133 108.3 234.222 108.3 231.786C108.3 229.364 107.859 227.467 106.977 226.095C106.109 224.723 104.66 224.037 102.63 224.037C100.6 224.037 99.1437 224.723 98.2617 226.095ZM105.192 229.182C105.332 229.882 105.402 230.75 105.402 231.786C105.402 232.85 105.339 233.746 105.213 234.474C105.087 235.188 104.821 235.769 104.415 236.217C104.009 236.651 103.414 236.868 102.63 236.868C101.846 236.868 101.251 236.651 100.845 236.217C100.439 235.769 100.173 235.188 100.047 234.474C99.9207 233.746 99.8577 232.85 99.8577 231.786C99.8577 230.75 99.9207 229.882 100.047 229.182C100.187 228.468 100.453 227.887 100.845 227.439C101.251 226.991 101.846 226.767 102.63 226.767C103.414 226.767 104.002 226.991 104.394 227.439C104.8 227.887 105.066 228.468 105.192 229.182ZM71.984 310.64H68.624L61.016 299.144V310.64H57.656V293.864H61.016L68.624 305.384V293.864H71.984V310.64ZM81.2085 310.856C79.9285 310.856 78.7765 310.576 77.7525 310.016C76.7285 309.44 75.9205 308.632 75.3285 307.592C74.7524 306.552 74.4645 305.352 74.4645 303.992C74.4645 302.632 74.7605 301.432 75.3525 300.392C75.9604 299.352 76.7845 298.552 77.8245 297.992C78.8645 297.416 80.0245 297.128 81.3045 297.128C82.5844 297.128 83.7445 297.416 84.7845 297.992C85.8245 298.552 86.6405 299.352 87.2325 300.392C87.8405 301.432 88.1445 302.632 88.1445 303.992C88.1445 305.352 87.8325 306.552 87.2085 307.592C86.6005 308.632 85.7685 309.44 84.7125 310.016C83.6725 310.576 82.5045 310.856 81.2085 310.856ZM81.2085 307.928C81.8165 307.928 82.3845 307.784 82.9125 307.496C83.4565 307.192 83.8885 306.744 84.2085 306.152C84.5285 305.56 84.6885 304.84 84.6885 303.992C84.6885 302.728 84.3525 301.76 83.6805 301.088C83.0245 300.4 82.2165 300.056 81.2565 300.056C80.2965 300.056 79.4884 300.4 78.8325 301.088C78.1925 301.76 77.8725 302.728 77.8725 303.992C77.8725 305.256 78.1845 306.232 78.8085 306.92C79.4485 307.592 80.2485 307.928 81.2085 307.928ZM97.9771 297.152C99.5611 297.152 100.841 297.656 101.817 298.664C102.793 299.656 103.281 301.048 103.281 302.84V310.64H99.9211V303.296C99.9211 302.24 99.6571 301.432 99.1291 300.872C98.6011 300.296 97.8811 300.008 96.9691 300.008C96.0411 300.008 95.3051 300.296 94.7611 300.872C94.2331 301.432 93.9691 302.24 93.9691 303.296V310.64H90.6091V297.344H93.9691V299C94.4171 298.424 94.9851 297.976 95.6731 297.656C96.3771 297.32 97.1451 297.152 97.9771 297.152ZM116.7 300.656V303.488H106.524V300.656H116.7ZM123.829 293.888V310.64H120.469V293.888H123.829ZM130.508 296.6V300.8H136.148V303.464H130.508V307.904H136.868V310.64H127.148V293.864H136.868V296.6H130.508ZM143.282 296.6V300.8H148.922V303.464H143.282V307.904H149.642V310.64H139.922V293.864H149.642V296.6H143.282ZM156.055 296.6V300.8H161.695V303.464H156.055V307.904H162.415V310.64H152.695V293.864H162.415V296.6H156.055ZM189.451 293.888V310.64H186.091V299.744L181.603 310.64H179.059L174.547 299.744V310.64H171.187V293.888H175.003L180.331 306.344L185.659 293.888H189.451ZM205.133 303.704C205.133 304.184 205.101 304.616 205.037 305H195.317C195.397 305.96 195.733 306.712 196.325 307.256C196.917 307.8 197.645 308.072 198.509 308.072C199.757 308.072 200.645 307.536 201.173 306.464H204.797C204.413 307.744 203.677 308.8 202.589 309.632C201.501 310.448 200.165 310.856 198.581 310.856C197.301 310.856 196.149 310.576 195.125 310.016C194.117 309.44 193.325 308.632 192.749 307.592C192.189 306.552 191.909 305.352 191.909 303.992C191.909 302.616 192.189 301.408 192.749 300.368C193.309 299.328 194.093 298.528 195.101 297.968C196.109 297.408 197.269 297.128 198.581 297.128C199.845 297.128 200.973 297.4 201.965 297.944C202.973 298.488 203.749 299.264 204.293 300.272C204.853 301.264 205.133 302.408 205.133 303.704ZM201.653 302.744C201.637 301.88 201.325 301.192 200.717 300.68C200.109 300.152 199.365 299.888 198.485 299.888C197.653 299.888 196.949 300.144 196.373 300.656C195.813 301.152 195.469 301.848 195.341 302.744H201.653ZM224.098 297.152C225.73 297.152 227.042 297.656 228.034 298.664C229.042 299.656 229.546 301.048 229.546 302.84V310.64H226.186V303.296C226.186 302.256 225.922 301.464 225.394 300.92C224.866 300.36 224.146 300.08 223.234 300.08C222.322 300.08 221.594 300.36 221.05 300.92C220.522 301.464 220.258 302.256 220.258 303.296V310.64H216.898V303.296C216.898 302.256 216.634 301.464 216.106 300.92C215.578 300.36 214.858 300.08 213.946 300.08C213.018 300.08 212.282 300.36 211.738 300.92C211.21 301.464 210.946 302.256 210.946 303.296V310.64H207.586V297.344H210.946V298.952C211.378 298.392 211.93 297.952 212.602 297.632C213.29 297.312 214.042 297.152 214.858 297.152C215.898 297.152 216.826 297.376 217.642 297.824C218.458 298.256 219.09 298.88 219.538 299.696C219.97 298.928 220.594 298.312 221.41 297.848C222.242 297.384 223.138 297.152 224.098 297.152ZM236.094 299.288C236.526 298.648 237.118 298.128 237.87 297.728C238.638 297.328 239.51 297.128 240.486 297.128C241.622 297.128 242.646 297.408 243.558 297.968C244.486 298.528 245.214 299.328 245.742 300.368C246.286 301.392 246.558 302.584 246.558 303.944C246.558 305.304 246.286 306.512 245.742 307.568C245.214 308.608 244.486 309.416 243.558 309.992C242.646 310.568 241.622 310.856 240.486 310.856C239.494 310.856 238.622 310.664 237.87 310.28C237.134 309.88 236.542 309.368 236.094 308.744V310.64H232.734V292.88H236.094V299.288ZM243.126 303.944C243.126 303.144 242.958 302.456 242.622 301.88C242.302 301.288 241.87 300.84 241.326 300.536C240.798 300.232 240.222 300.08 239.598 300.08C238.99 300.08 238.414 300.24 237.87 300.56C237.342 300.864 236.91 301.312 236.574 301.904C236.254 302.496 236.094 303.192 236.094 303.992C236.094 304.792 236.254 305.488 236.574 306.08C236.91 306.672 237.342 307.128 237.87 307.448C238.414 307.752 238.99 307.904 239.598 307.904C240.222 307.904 240.798 307.744 241.326 307.424C241.87 307.104 242.302 306.648 242.622 306.056C242.958 305.464 243.126 304.76 243.126 303.944ZM261.36 303.704C261.36 304.184 261.328 304.616 261.264 305H251.544C251.624 305.96 251.96 306.712 252.552 307.256C253.144 307.8 253.872 308.072 254.736 308.072C255.984 308.072 256.872 307.536 257.4 306.464H261.024C260.64 307.744 259.904 308.8 258.816 309.632C257.728 310.448 256.392 310.856 254.808 310.856C253.528 310.856 252.376 310.576 251.352 310.016C250.344 309.44 249.552 308.632 248.976 307.592C248.416 306.552 248.136 305.352 248.136 303.992C248.136 302.616 248.416 301.408 248.976 300.368C249.536 299.328 250.32 298.528 251.328 297.968C252.336 297.408 253.496 297.128 254.808 297.128C256.072 297.128 257.2 297.4 258.192 297.944C259.2 298.488 259.976 299.264 260.52 300.272C261.08 301.264 261.36 302.408 261.36 303.704ZM257.88 302.744C257.864 301.88 257.552 301.192 256.944 300.68C256.336 300.152 255.592 299.888 254.712 299.888C253.88 299.888 253.176 300.144 252.6 300.656C252.04 301.152 251.696 301.848 251.568 302.744H257.88ZM267.172 299.408C267.604 298.704 268.164 298.152 268.852 297.752C269.556 297.352 270.356 297.152 271.252 297.152V300.68H270.364C269.308 300.68 268.508 300.928 267.964 301.424C267.436 301.92 267.172 302.784 267.172 304.016V310.64H263.812V297.344H267.172V299.408ZM278.603 310.856C277.515 310.856 276.539 310.664 275.675 310.28C274.811 309.88 274.123 309.344 273.611 308.672C273.115 308 272.843 307.256 272.795 306.44H276.179C276.243 306.952 276.491 307.376 276.923 307.712C277.371 308.048 277.923 308.216 278.579 308.216C279.219 308.216 279.715 308.088 280.067 307.832C280.435 307.576 280.619 307.248 280.619 306.848C280.619 306.416 280.395 306.096 279.947 305.888C279.515 305.664 278.819 305.424 277.859 305.168C276.867 304.928 276.051 304.68 275.411 304.424C274.787 304.168 274.243 303.776 273.779 303.248C273.331 302.72 273.107 302.008 273.107 301.112C273.107 300.376 273.315 299.704 273.731 299.096C274.163 298.488 274.771 298.008 275.555 297.656C276.355 297.304 277.291 297.128 278.363 297.128C279.947 297.128 281.211 297.528 282.155 298.328C283.099 299.112 283.619 300.176 283.715 301.52H280.499C280.451 300.992 280.227 300.576 279.827 300.272C279.443 299.952 278.923 299.792 278.267 299.792C277.659 299.792 277.187 299.904 276.851 300.128C276.531 300.352 276.371 300.664 276.371 301.064C276.371 301.512 276.595 301.856 277.043 302.096C277.491 302.32 278.187 302.552 279.131 302.792C280.091 303.032 280.883 303.28 281.507 303.536C282.131 303.792 282.667 304.192 283.115 304.736C283.579 305.264 283.819 305.968 283.835 306.848C283.835 307.616 283.619 308.304 283.187 308.912C282.771 309.52 282.163 310 281.363 310.352C280.579 310.688 279.659 310.856 278.603 310.856ZM66.038 328.615V327.019H68.159V324.961H56.882V327.019H63.266V328.615H56.882V330.547H63.161C63.049 331.107 62.818 331.513 62.468 331.765C62.118 332.017 61.586 332.185 60.872 332.269C60.158 332.339 59.052 332.374 57.554 332.374V335.167C57.554 336.693 57.946 337.855 58.73 338.653C59.514 339.451 60.648 339.85 62.132 339.85C63.56 339.85 64.659 339.479 65.429 338.737C66.199 337.981 66.598 336.896 66.626 335.482H63.896C63.896 336.168 63.756 336.693 63.476 337.057C63.196 337.407 62.741 337.582 62.111 337.582C61.453 337.582 60.984 337.393 60.704 337.015C60.438 336.637 60.305 336.119 60.305 335.461V334.348C62.069 334.348 63.385 334.047 64.253 333.445C65.135 332.843 65.688 331.877 65.912 330.547H68.159V328.615H66.038ZM69.5939 324.331V327.04H71.6309V339.64H74.6549V324.331H69.5939ZM78.8613 326.095C77.9933 327.467 77.5593 329.364 77.5593 331.786C77.5593 334.222 77.9933 336.133 78.8613 337.519C79.7433 338.905 81.1993 339.598 83.2293 339.598C85.2593 339.598 86.7083 338.905 87.5763 337.519C88.4583 336.133 88.8993 334.222 88.8993 331.786C88.8993 329.364 88.4583 327.467 87.5763 326.095C86.7083 324.723 85.2593 324.037 83.2293 324.037C81.1993 324.037 79.7433 324.723 78.8613 326.095ZM85.7913 329.182C85.9313 329.882 86.0013 330.75 86.0013 331.786C86.0013 332.85 85.9383 333.746 85.8123 334.474C85.6863 335.188 85.4203 335.769 85.0143 336.217C84.6083 336.651 84.0133 336.868 83.2293 336.868C82.4453 336.868 81.8503 336.651 81.4443 336.217C81.0383 335.769 80.7723 335.188 80.6463 334.474C80.5203 333.746 80.4573 332.85 80.4573 331.786C80.4573 330.75 80.5203 329.882 80.6463 329.182C80.7863 328.468 81.0523 327.887 81.4443 327.439C81.8503 326.991 82.4453 326.767 83.2293 326.767C84.0133 326.767 84.6013 326.991 84.9933 327.439C85.3993 327.887 85.6653 328.468 85.7913 329.182ZM94.6215 326.872H101.425V324.289H91.9335V333.277H94.7475C94.9155 332.787 95.1955 332.395 95.5875 332.101C95.9795 331.807 96.4695 331.66 97.0575 331.66C97.8835 331.66 98.5065 331.891 98.9265 332.353C99.3605 332.801 99.5775 333.459 99.5775 334.327C99.5775 335.181 99.3675 335.867 98.9475 336.385C98.5275 336.903 97.9045 337.162 97.0785 337.162C96.3925 337.162 95.8255 336.994 95.3775 336.658C94.9435 336.322 94.6635 335.874 94.5375 335.314H91.6815C91.8075 336.602 92.3465 337.645 93.2985 338.443C94.2505 339.241 95.5245 339.64 97.1205 339.64C98.8145 339.64 100.116 339.15 101.026 338.17C101.95 337.19 102.412 335.895 102.412 334.285C102.412 333.417 102.251 332.605 101.929 331.849C101.607 331.079 101.089 330.449 100.375 329.959C99.6615 329.469 98.7445 329.224 97.6245 329.224C97.0085 329.224 96.4275 329.343 95.8815 329.581C95.3355 329.805 94.9155 330.099 94.6215 330.463V326.872ZM105.952 326.095C105.084 327.467 104.65 329.364 104.65 331.786C104.65 334.222 105.084 336.133 105.952 337.519C106.834 338.905 108.29 339.598 110.32 339.598C112.35 339.598 113.799 338.905 114.667 337.519C115.549 336.133 115.99 334.222 115.99 331.786C115.99 329.364 115.549 327.467 114.667 326.095C113.799 324.723 112.35 324.037 110.32 324.037C108.29 324.037 106.834 324.723 105.952 326.095ZM112.882 329.182C113.022 329.882 113.092 330.75 113.092 331.786C113.092 332.85 113.029 333.746 112.903 334.474C112.777 335.188 112.511 335.769 112.105 336.217C111.699 336.651 111.104 336.868 110.32 336.868C109.536 336.868 108.941 336.651 108.535 336.217C108.129 335.769 107.863 335.188 107.737 334.474C107.611 333.746 107.548 332.85 107.548 331.786C107.548 330.75 107.611 329.882 107.737 329.182C107.877 328.468 108.143 327.887 108.535 327.439C108.941 326.991 109.536 326.767 110.32 326.767C111.104 326.767 111.692 326.991 112.084 327.439C112.49 327.887 112.756 328.468 112.882 329.182Z" fill="#01D0A0"/>
</svg>
